<svg version="1.1" id="Layer_1" xmlns="http://www.w3.org/2000/svg" xmlns:xlink="http://www.w3.org/1999/xlink" x="0px" y="0px"
	 width="49.054px" height="31.055px" viewBox="0 0 49.054 31.055" enable-background="new 0 0 49.054 31.055" xml:space="preserve">
<path fill="#CDCCCC" d="M39.33,12.502c-1.061,0-2.077,0.186-3.023,0.521l-2.895-5.211l0.957-2.873h1.936
	c0.835,0,1.513-0.678,1.513-1.514c0-0.834-0.678-1.511-1.513-1.511h-6.051c-0.836,0-1.513,0.677-1.513,1.511
	c0,0.836,0.677,1.514,1.513,1.514h0.927l-0.504,1.512H16.515l1.164-3.025h3.499c0.835,0,1.513-0.676,1.513-1.511
	c0-0.836-0.678-1.514-1.513-1.514H16.64c-0.626,0-1.188,0.387-1.412,0.971l-4.351,11.312c-0.582-0.117-1.185-0.182-1.801-0.182
	C4.071,12.502,0,16.575,0,21.579c0,5.006,4.071,9.076,9.076,9.076c5.004,0,9.076-4.07,9.076-9.076c0-3.316-1.79-6.223-4.453-7.805
	l0.606-1.578l11.922,10.518c0.279,0.248,0.637,0.379,1.001,0.379h3.154c0.723,4.287,4.458,7.562,8.947,7.562
	c5.004,0,9.076-4.07,9.076-9.076C48.406,16.575,44.334,12.502,39.33,12.502z M15.127,21.579c0,3.338-2.715,6.051-6.051,6.051
	c-3.337,0-6.051-2.713-6.051-6.051c0-3.336,2.714-6.051,6.051-6.051c0.233,0,0.463,0.018,0.69,0.043l-2.103,5.465
	c-0.067,0.18-0.101,0.363-0.101,0.545c0,0.607,0.369,1.18,0.97,1.41c0.179,0.07,0.361,0.102,0.543,0.102
	c0.607,0,1.181-0.369,1.412-0.971l2.1-5.461C14.122,17.76,15.127,19.553,15.127,21.579z M16.218,9.477h13.45l-3.152,9.457
	L16.122,9.762L16.218,9.477z M32.114,11.706l1.55,2.791c-1.702,1.365-2.904,3.328-3.281,5.57h-1.057L32.114,11.706z M36.758,20.067
	h-3.279c0.287-1.111,0.881-2.1,1.688-2.867L36.758,20.067z M39.33,27.629c-2.814,0-5.178-1.932-5.852-4.537h5.852
	c0.535,0,1.031-0.283,1.303-0.746c0.139-0.236,0.209-0.502,0.21-0.768c0-0.252-0.063-0.506-0.19-0.734l-2.842-5.115
	c0.486-0.125,0.994-0.201,1.52-0.201c3.336,0,6.051,2.715,6.051,6.051C45.381,24.917,42.666,27.629,39.33,27.629z"/>
</svg>
