<svg version="1.1" id="Layer_1" xmlns="http://www.w3.org/2000/svg" xmlns:xlink="http://www.w3.org/1999/xlink" x="0px" y="0px"
	 width="48.406px" height="50.784px" viewBox="0 0 48.406 50.784" enable-background="new 0 0 48.406 50.784" xml:space="preserve">
<path fill="#CDCCCC" d="M0.513,18.336c0.793-0.97,2.223-1.113,3.193-0.319c6.895,5.642,5.434,11.226,4.146,16.153
	c-0.537,2.055-1.044,3.996-1.044,6.024c0,4.045,4.037,5.505,8.32,5.915L16.64,3.89c0-0.653,0.418-1.231,1.038-1.437
	c0.156-0.051,0.316-0.076,0.474-0.076c0.47,0,0.925,0.221,1.216,0.612l6.269,8.464h12.259l6.269-8.464
	c0.291-0.392,0.746-0.612,1.217-0.612c0.158,0,0.318,0.025,0.474,0.076c0.62,0.205,1.038,0.783,1.038,1.437l1.514,43.868
	c0,1.67-1.355,3.025-3.025,3.025H18.152c-10.094,0-15.883-3.86-15.883-10.589c0-2.612,0.634-5.034,1.192-7.173
	c1.211-4.633,2.012-7.695-2.629-11.492C-0.137,20.736-0.28,19.307,0.513,18.336z M40.842,19.017c-1.67,0-3.025,1.354-3.025,3.025
	s1.355,3.025,3.025,3.025c1.672,0,3.025-1.354,3.025-3.025S42.514,19.017,40.842,19.017z M22.69,19.017
	c-1.67,0-3.025,1.354-3.025,3.025s1.355,3.025,3.025,3.025c1.671,0,3.025-1.354,3.025-3.025S24.362,19.017,22.69,19.017z"/>
</svg>