<svg version="1.1" id="Layer_1" xmlns="http://www.w3.org/2000/svg" xmlns:xlink="http://www.w3.org/1999/xlink" x="0px" y="0px"
	 width="76.07px" height="76.063px" viewBox="0 0 76.07 76.063" enable-background="new 0 0 76.07 76.063" xml:space="preserve">
<path fill="#60B8DE" d="M47.274,19.479c-6.396,0-12.287,2.184-16.982,5.836l-6.115-6.115v-8.96L14.938,1v13.859H1.078l9.239,9.238
	h8.96l6.114,6.116c-3.652,4.694-5.835,10.586-5.835,16.982c0,15.284,12.434,27.718,27.718,27.718S74.992,62.48,74.992,47.196
	S62.559,19.479,47.274,19.479z M47.274,65.675c-10.189,0-18.479-8.29-18.479-18.479c0-3.846,1.182-7.419,3.2-10.379l6.771,6.771
	c-0.472,1.109-0.732,2.328-0.732,3.608c0,5.103,4.136,9.239,9.239,9.239s9.239-4.137,9.239-9.239s-4.136-9.239-9.239-9.239
	c-1.28,0-2.5,0.261-3.608,0.732l-6.771-6.772c2.961-2.017,6.534-3.199,10.379-3.199c10.189,0,18.479,8.29,18.479,18.479
	S57.464,65.675,47.274,65.675z"/>
</svg>