<svg version="1.1" id="Layer_1" xmlns="http://www.w3.org/2000/svg" xmlns:xlink="http://www.w3.org/1999/xlink" x="0px" y="0px"
	 width="75px" height="75px" viewBox="0 0 75 75" enable-background="new 0 0 75 75" xml:space="preserve">
<path fill="#72BEE1" d="M46.875,9.375v4.688c0,5.178-4.197,9.375-9.375,9.375s-9.375-4.197-9.375-9.375V9.375
	C28.125,4.197,32.322,0,37.5,0S46.875,4.197,46.875,9.375z M50.876,33.499c-0.22-0.22-5.465-5.374-13.376-5.374
	s-13.156,5.154-13.376,5.374c-0.439,0.439-0.687,1.036-0.687,1.657v18.75c0,0.889,0.501,1.699,1.295,2.097l3.59,1.794l2.17,15.19
	C30.657,74.143,31.646,75,32.812,75h9.375c1.166,0,2.155-0.857,2.32-2.013l2.17-15.19l3.59-1.794
	c0.794-0.397,1.295-1.208,1.295-2.097v-18.75C51.562,34.535,51.315,33.938,50.876,33.499z M72.656,16.406v3.516
	c0,3.884-3.147,7.031-7.031,7.031s-7.031-3.147-7.031-7.031v-3.516c0-3.884,3.147-7.031,7.031-7.031S72.656,12.522,72.656,16.406z
	 M65.625,30.469c-8.699,0-9.375,3.588-9.375,4.688v14.062c0,0.784,0.392,1.516,1.044,1.95l2.594,1.729l1.062,10.616
	c0.12,1.198,1.128,2.11,2.332,2.11h4.688c1.204,0,2.212-0.912,2.332-2.11l1.062-10.616l2.594-1.729
	C74.608,50.734,75,50.003,75,49.219V35.156C75,34.057,74.324,30.469,65.625,30.469z M16.406,16.406v3.516
	c0,3.884-3.147,7.031-7.031,7.031s-7.031-3.147-7.031-7.031v-3.516c0-3.884,3.147-7.031,7.031-7.031S16.406,12.522,16.406,16.406z
	 M9.375,30.469C0.676,30.469,0,34.057,0,35.156v14.062c0,0.784,0.392,1.516,1.044,1.95l2.594,1.729l1.062,10.616
	c0.12,1.198,1.128,2.11,2.332,2.11h4.688c1.204,0,2.212-0.912,2.332-2.11l1.062-10.616l2.594-1.729
	c0.652-0.435,1.044-1.166,1.044-1.95V35.156C18.75,34.057,18.074,30.469,9.375,30.469z"/>
</svg>
