<svg version="1.1" id="Layer_1" xmlns="http://www.w3.org/2000/svg" xmlns:xlink="http://www.w3.org/1999/xlink" x="0px" y="0px"
	 width="111.527px" height="41.921px" viewBox="0 0 111.527 41.921" enable-background="new 0 0 111.527 41.921"
	 xml:space="preserve">
<g>
	<g>
		<g>
			<path fill="#E5B722" d="M110.613,4.776c-2.502-3.811-9.658-6.559-12.761-3.39c-0.351,0.358-0.665,0.731-0.938,1.115
				c0.912,0.195,1.719,0.657,2.152,1.573c0.504,1.005,0.59,3.741-0.318,5.229c0.29,0.312,0.525,0.679,0.705,1.073
				c0.307,0.686,0.682,1.629,0.722,2.556c0.702,0.373,1.444,0.68,1.911,0.793c1.193,0.289,2.451,0.262,3.608,0.126
				c1.479-0.172,2.812-0.782,3.845-1.734C111.43,10.373,112.33,7.39,110.613,4.776z"/>
			<path fill="#61B7DD" d="M94.105,9.373c0.596-0.427,1.33-0.761,2.08-0.878c-0.924-2.178-0.537-4.216,0.729-5.993
				c-1.039-0.223-2.219-0.094-3.16,0.129c-2.052,0.469-2.613,1.448-2.564,3.5c0.032,1.589,0.83,3.174,2.096,4.013
				C93.533,9.856,93.803,9.589,94.105,9.373z"/>
			<path fill="#DDB929" d="M96.186,8.494c0.645-0.101,1.299-0.045,1.889,0.271c0.259,0.139,0.478,0.328,0.674,0.538
				c0.908-1.488,0.822-4.225,0.318-5.229c-0.434-0.916-1.24-1.378-2.152-1.573C95.648,4.278,95.262,6.316,96.186,8.494z"/>
			<path fill="#638139" d="M96.186,8.494c0.645-0.101,1.299-0.045,1.889,0.271c0.259,0.139,0.478,0.328,0.674,0.538
				c0.908-1.488,0.822-4.225,0.318-5.229c-0.434-0.916-1.24-1.378-2.152-1.573C95.648,4.278,95.262,6.316,96.186,8.494z"/>
			<path fill="#E71089" d="M97.316,10.406c-0.667,0.278-1.059,0.266-1.694,0.336c-0.881,0.082-1.672-0.158-2.337-0.599
				c-0.987,1.146-1.502,2.758-1.172,4.162v0.001v0.002c0.654-0.038,1.342,0.108,1.639,0.731c0.148,0.297,0.232,0.934,0.141,1.52
				c1.896,1.055,3.732,0.598,5.672-1.736c0.498-0.55,0.643-1.217,0.61-1.892c-0.662-0.353-1.292-0.764-1.608-1.127
				C98.086,11.335,97.671,10.868,97.316,10.406z"/>
			<path fill="#DDB929" d="M98.748,9.303c-0.19,0.307-0.415,0.565-0.697,0.738c-0.281,0.16-0.523,0.276-0.734,0.365
				c0.354,0.462,0.77,0.929,1.25,1.398c0.316,0.363,0.946,0.775,1.608,1.127c-0.04-0.927-0.415-1.87-0.722-2.556
				C99.273,9.982,99.038,9.616,98.748,9.303z"/>
			<path fill="#BD2429" d="M98.748,9.303c-0.19,0.307-0.415,0.565-0.697,0.738c-0.281,0.16-0.523,0.276-0.734,0.365
				c0.354,0.462,0.77,0.929,1.25,1.398c0.316,0.363,0.946,0.775,1.608,1.127c-0.04-0.927-0.415-1.87-0.722-2.556
				C99.273,9.982,99.038,9.616,98.748,9.303z"/>
			<path fill="#61B6DC" d="M95.622,10.742c0.636-0.07,1.027-0.058,1.694-0.336c-0.494-0.647-0.863-1.286-1.131-1.912
				c-0.75,0.117-1.484,0.452-2.08,0.878c-0.303,0.216-0.572,0.483-0.82,0.771C93.95,10.584,94.741,10.824,95.622,10.742z"/>
			<path fill="#6E2A77" d="M95.622,10.742c0.636-0.07,1.027-0.058,1.694-0.336c-0.494-0.647-0.863-1.286-1.131-1.912
				c-0.75,0.117-1.484,0.452-2.08,0.878c-0.303,0.216-0.572,0.483-0.82,0.771C93.95,10.584,94.741,10.824,95.622,10.742z"/>
			<path fill="#DDB929" d="M98.074,8.765c-0.59-0.316-1.244-0.372-1.889-0.271c0.268,0.626,0.637,1.265,1.131,1.912
				c0.211-0.088,0.453-0.205,0.734-0.365c0.282-0.173,0.507-0.432,0.697-0.738C98.552,9.093,98.333,8.904,98.074,8.765z"/>
			<path fill="#61B6DC" d="M98.074,8.765c-0.59-0.316-1.244-0.372-1.889-0.271c0.268,0.626,0.637,1.265,1.131,1.912
				c0.211-0.088,0.453-0.205,0.734-0.365c0.282-0.173,0.507-0.432,0.697-0.738C98.552,9.093,98.333,8.904,98.074,8.765z"/>
			<path fill="#68262E" d="M98.074,8.765c-0.59-0.316-1.244-0.372-1.889-0.271c0.268,0.626,0.637,1.265,1.131,1.912
				c0.211-0.088,0.453-0.205,0.734-0.365c0.282-0.173,0.507-0.432,0.697-0.738C98.552,9.093,98.333,8.904,98.074,8.765z"/>
			<path fill="#ED8027" d="M92.113,14.309c-0.005,0-0.014,0-0.017,0c-0.235,0.015-0.466,0.053-0.667,0.102
				c-0.898,0.204-1.143,0.633-1.123,1.529c0.023,1.061,0.817,2.12,1.939,2.017c0.365-0.04,0.807-0.096,1.062-0.306
				c0.399-0.325,0.541-0.563,0.584-1.09c0,0-0.152-0.084-0.225-0.131C92.805,15.895,92.312,15.14,92.113,14.309z"/>
			<path fill="#E61489" d="M93.752,15.04c-0.297-0.624-0.984-0.77-1.639-0.731c0.199,0.831,0.691,1.586,1.555,2.12
				c0.072,0.046,0.225,0.131,0.225,0.131C93.984,15.974,93.9,15.337,93.752,15.04z"/>
			<path fill="#EC8028" d="M93.752,15.04c-0.297-0.624-0.984-0.77-1.639-0.731c0.199,0.831,0.691,1.586,1.555,2.12
				c0.072,0.046,0.225,0.131,0.225,0.131C93.984,15.974,93.9,15.337,93.752,15.04z"/>
			<path fill="#CD1F42" d="M93.771,15.038c-0.303-0.631-1.002-0.773-1.658-0.731c0.196,0.831,0.688,1.588,1.555,2.122
				c0.072,0.046,0.149,0.09,0.225,0.131C93.984,15.974,93.922,15.333,93.771,15.038"/>
		</g>
		<path fill="#262626" d="M104.895,21.423c-1.148-0.314-2.547-0.495-3.227-0.495c-4.348,0-6.559,2.796-6.559,7.418
			c0,3.788,1.534,6.29,4.737,6.29c2.161,0,3.333-1.15,4.058-2.435v1.239c0,0.609,0.429,1.104,1.036,1.104
			c0.63,0,1.036-0.495,1.036-1.104V23.138C105.977,22.189,105.864,21.695,104.895,21.423z M103.812,28.437
			c0,1.758-1.215,4.531-3.877,4.531c-2.028,0-2.662-2.344-2.662-4.555c0-3.248,1.037-5.727,4.059-5.727
			c0.992,0,1.985,0.201,2.48,0.404V28.437z M90.283,22.144c0-0.63,0.475-1.127,1.082-1.127c0.634,0,1.105,0.497,1.105,1.127v11.297
			c0,0.609-0.472,1.104-1.105,1.104c-0.607,0-1.082-0.495-1.082-1.104V22.144z M86.632,32.156c0.316-0.18,0.699-0.383,1.059-0.383
			c0.429,0,0.812,0.271,0.812,0.855c0,0.34-0.158,0.611-0.494,0.836c-0.901,0.607-2.369,1.172-4.016,1.172
			c-3.721,0-5.727-2.391-5.727-6.854c0-5.321,3.246-6.854,5.704-6.854c1.376,0,2.751,0.314,4.061,1.397
			c0.225,0.181,0.36,0.473,0.36,0.766c0,0.52-0.36,0.971-0.901,0.971c-0.294,0-0.634-0.18-0.857-0.361
			c-0.858-0.721-1.603-0.947-2.64-0.947c-2.028,0-3.537,1.534-3.537,4.938c0,2.999,1.057,5.119,3.742,5.119
			C84.985,32.811,85.773,32.653,86.632,32.156 M70.916,20.928c-2.594,0-5.951,1.351-5.951,6.764c0,4.712,2.184,6.944,5.521,6.944
			c3.27,0,5.952-2.119,5.952-7.215C76.438,21.492,72.721,20.928,70.916,20.928z M70.668,32.923c-2.887,0-3.52-2.977-3.52-5.479
			c0-2.751,1.244-4.757,3.609-4.757c2.434,0,3.45,2.119,3.45,5.164C74.208,30.625,73.037,32.923,70.668,32.923z M55.019,31.886
			c0.271,0,0.475,0.111,0.653,0.202c0.789,0.429,1.715,0.835,2.976,0.835c1.401,0,2.46-0.654,2.46-2.097
			c0-1.443-1.352-1.917-2.816-2.39c-1.781-0.586-3.725-1.242-3.725-3.699c0-2.637,2.102-3.81,4.4-3.81
			c1.441,0,2.59,0.382,3.447,0.923c0.248,0.136,0.564,0.428,0.564,0.857c0,0.497-0.336,0.902-0.834,0.902
			c-0.248,0-0.519-0.135-0.746-0.271c-0.742-0.451-1.6-0.652-2.523-0.652c-1.059,0-2.256,0.404-2.256,1.849
			c0,1.329,1.378,1.826,2.773,2.276c1.738,0.587,3.787,1.443,3.787,3.9c0,2.594-1.824,3.924-4.506,3.924
			c-1.896,0-3.048-0.541-3.88-0.991c-0.339-0.181-0.61-0.451-0.61-0.856C54.184,32.292,54.523,31.886,55.019,31.886 M36.617,26
			c0-1.804-0.607-3.292-2.682-3.292c-1.894,0-3.404,1.939-3.404,4.24v6.492c0,0.609-0.473,1.104-1.105,1.104
			c-0.607,0-1.082-0.495-1.082-1.104V22.144c0-0.63,0.429-1.127,1.039-1.127c0.631,0,1.059,0.497,1.059,1.127v0.88
			c0.924-1.532,2.346-2.096,3.88-2.096c2.817,0,4.486,1.511,4.486,4.532v7.98c0,0.609-0.475,1.104-1.104,1.104
			c-0.611,0-1.086-0.495-1.086-1.104V26z M18.335,21.716c0.158-0.406,0.518-0.676,0.97-0.676c0.766,0,1.307,0.607,0.99,1.466
			l-4.127,11.116c-0.179,0.496-0.426,0.902-0.967,0.902s-0.746-0.384-0.95-0.902L10.17,22.596c-0.316-0.835,0.09-1.556,0.947-1.556
			c0.472,0,0.838,0.295,0.992,0.699l3.135,8.5L18.335,21.716z M0,16.8c0-0.631,0.475-1.127,1.082-1.127
			c0.631,0,1.105,0.496,1.105,1.127v16.791c0,0.609-0.475,1.104-1.105,1.104C0.475,34.696,0,34.201,0,33.591V16.8z M109.341,16.8
			c0-0.631,0.472-1.127,1.079-1.127c0.633,0,1.107,0.496,1.107,1.127v16.791c0,0.609-0.475,1.104-1.107,1.104
			c-0.607,0-1.079-0.495-1.079-1.104V16.8z M50.75,21.335c-1.012-0.248-2.025-0.429-2.973-0.429c-3.271,0-6.247,2.254-6.247,6.562
			c0,4.621,2.009,6.291,4.351,6.515L45.41,34.3c-1.377,0.924-2.864,1.984-2.864,4.014c0,2.118,1.419,3.607,4.147,3.607
			c5.188,0,5.39-4.85,5.39-7.713V23.184C52.083,21.74,51.7,21.56,50.75,21.335z M50.055,35.202c0,2.908-0.699,5.118-3.181,5.118
			c-1.353,0-2.3-0.609-2.3-2.006c0-1.195,1.218-2.232,2.547-3.36l2.934-2.503V35.202z M50.074,28.459
			c0,1.985-1.26,4.015-3.088,4.015c-3.18,0-3.292-3.18-3.292-4.804c0-3.269,1.557-5.005,3.813-5.005
			c1.193,0,1.848,0.157,2.566,0.383V28.459z M22.836,22.124c0-0.632,0.472-1.128,1.082-1.128c0.63,0,1.102,0.496,1.102,1.128v11.298
			c0,0.609-0.472,1.105-1.102,1.105c-0.61,0-1.082-0.496-1.082-1.105V22.124z M5.834,22.124c0-0.632,0.471-1.128,1.082-1.128
			c0.63,0,1.102,0.496,1.102,1.128v11.298c0,0.609-0.472,1.105-1.102,1.105c-0.611,0-1.082-0.496-1.082-1.105V22.124z"/>
	</g>
</g>
</svg>
