<svg version="1.1" id="Layer_1" xmlns="http://www.w3.org/2000/svg" xmlns:xlink="http://www.w3.org/1999/xlink" x="0px" y="0px"
	 width="76.07px" height="76.063px" viewBox="0 0 76.07 76.063" enable-background="new 0 0 76.07 76.063" xml:space="preserve">
<path fill="#72BEE1" d="M47.611,11.079L3.565,55.125c-0.358,0.357-0.59,0.822-0.662,1.326L0.56,72.857
	c-0.104,0.729,0.141,1.467,0.662,1.988c0.443,0.441,1.04,0.686,1.657,0.686c0.11,0,0.221-0.008,0.332-0.023l16.406-2.344
	c0.502-0.072,0.967-0.305,1.325-0.662l44.046-44.046L47.611,11.079z M5.223,70.844l2.344-14.062L19.285,68.5L5.223,70.844z
	 M74.849,18.595l-6.546,6.546L50.926,7.764l6.546-6.546c0.915-0.916,2.4-0.916,3.314,0l14.062,14.062
	C75.764,16.196,75.764,17.68,74.849,18.595z"/>
</svg>