<svg version="1.1" id="Layer_1" xmlns="http://www.w3.org/2000/svg" xmlns:xlink="http://www.w3.org/1999/xlink" x="0px" y="0px"
	 width="202.682px" height="299.546px" viewBox="0 0 202.682 299.546" enable-background="new 0 0 202.682 299.546"
	 xml:space="preserve">
<g>
	<g>
		<defs>
			<rect id="SVGID_1_" x="0" width="202.682" height="299.546"/>
		</defs>
		<clipPath id="SVGID_2_">
			<use xlink:href="#SVGID_1_"  overflow="visible"/>
		</clipPath>
		<g clip-path="url(#SVGID_2_)">
			<g>
				<g>
					<path fill="#E6E6E5" d="M6.638,115.34c0,0.342-0.28,0.622-0.622,0.622H0.622c-0.343,0-0.622-0.28-0.622-0.622v-12.812
						c0-0.342,0.279-0.622,0.622-0.622h5.394c0.342,0,0.622,0.28,0.622,0.622V115.34z"/>
				</g>
				<g>
					<path fill="#E6E6E5" d="M6.638,80.785c0,0.342-0.28,0.622-0.622,0.622H0.622C0.28,81.407,0,81.127,0,80.785v-16.52
						c0-0.342,0.279-0.622,0.622-0.622h5.394c0.342,0,0.622,0.28,0.622,0.622V80.785z"/>
				</g>
				<g>
					<path fill="#E6E6E5" d="M129.061,6.638c-0.342,0-0.622-0.28-0.622-0.622V0.622c0-0.342,0.28-0.622,0.622-0.622h29.934
						c0.342,0,0.622,0.28,0.622,0.622v5.394c0,0.342-0.28,0.622-0.622,0.622H129.061z"/>
				</g>
				<g>
					<path fill="#E6E6E5" d="M6.638,149.504c0,0.342-0.28,0.622-0.622,0.622H0.622c-0.343,0-0.622-0.28-0.622-0.622v-12.812
						c0-0.342,0.279-0.622,0.622-0.622h5.394c0.342,0,0.622,0.28,0.622,0.622V149.504z"/>
				</g>
				<g>
					<path fill="#F3F3F3" d="M29.76,419.603c-13.204,0-23.947-10.742-23.947-23.945V29.629c0-13.205,10.743-23.947,23.947-23.947
						h145.839c13.204,0,23.947,10.742,23.947,23.947v366.029c0,13.203-10.743,23.945-23.947,23.945H29.76z"/>
					<path fill="#E0E1E0" d="M175.599,6.615c12.689,0,23.014,10.324,23.014,23.014v366.029c0,12.688-10.323,23.014-23.014,23.014
						H29.76c-12.69,0-23.014-10.324-23.014-23.014V29.629c0-12.69,10.323-23.014,23.014-23.014H175.599 M175.599,4.749H29.76
						c-13.684,0-24.88,11.196-24.88,24.88v366.029c0,13.684,11.196,24.879,24.88,24.879h145.839c13.685,0,24.88-11.195,24.88-24.879
						V29.629C200.479,15.945,189.282,4.749,175.599,4.749L175.599,4.749z"/>
				</g>
				<g>
					<path fill="#FFFFFF" d="M175.599,4.749c13.685,0,24.88,11.196,24.88,24.88v366.029c0,13.684-11.195,24.879-24.88,24.879H29.76
						c-13.684,0-24.88-11.195-24.88-24.879V29.629c0-13.684,11.196-24.88,24.88-24.88H175.599 M175.599,2.883H29.76
						c-14.748,0-26.746,11.999-26.746,26.746v366.029c0,14.748,11.999,26.746,26.746,26.746h145.839
						c14.748,0,26.746-11.998,26.746-26.746V29.629C202.345,14.881,190.347,2.883,175.599,2.883L175.599,2.883z"/>
				</g>
				<g>
					<path fill="#1A1A1A" d="M188.181,360.646c0,1.025-0.84,1.866-1.866,1.866H19.043c-1.026,0-1.866-0.841-1.866-1.866V65.41
						c0-1.026,0.84-1.866,1.866-1.866h167.271c1.026,0,1.866,0.84,1.866,1.866L188.181,360.646L188.181,360.646z"/>
				</g>
				<circle fill="#CDCCCC" cx="102.679" cy="388.977" r="18.813"/>
				<g>
					<path fill="none" stroke="#FFFFFF" stroke-width="1.244" stroke-miterlimit="10" d="M109.59,394.309
						c0,1.026-0.84,1.866-1.866,1.866H97.635c-1.026,0-1.866-0.84-1.866-1.866v-10.595c0-1.025,0.84-1.865,1.866-1.865h10.089
						c1.026,0,1.866,0.84,1.866,1.865V394.309z"/>
				</g>
				<polygon opacity="0.04" fill="#F3F3F3" enable-background="new    " points="188.181,185.597 188.181,63.544 112.286,63.544 
									"/>
				<path opacity="0.25" fill="#F3F3F3" enable-background="new    " d="M169.243,4.749H75.726l36.562,58.795h75.895v122.053
					l12.298,19.777V35.983C200.479,18.805,186.423,4.749,169.243,4.749z"/>
				<g>
					<path fill="#B4B4B4" d="M88.486,46.173c-2.684,0-4.867-2.185-4.867-4.869c0-2.684,2.184-4.869,4.867-4.869h28.386
						c2.685,0,4.869,2.185,4.869,4.869c0,2.684-2.186,4.869-4.869,4.869H88.486z"/>
					<path fill="#E0E1E0" d="M116.871,37.057c2.346,0,4.247,1.901,4.247,4.247c0,2.346-1.901,4.247-4.247,4.247H88.486
						c-2.346,0-4.245-1.901-4.245-4.247c0-2.346,1.899-4.247,4.245-4.247H116.871 M116.871,35.812H88.486
						c-3.026,0-5.489,2.463-5.489,5.491c0,3.028,2.463,5.491,5.489,5.491h28.386c3.026,0,5.49-2.463,5.49-5.491
						C122.362,38.275,119.898,35.812,116.871,35.812L116.871,35.812z"/>
				</g>
				<g>
					<path fill="#B4B4B4" d="M102.68,30.053c-2.281,0-4.137-1.854-4.137-4.135c0-2.28,1.855-4.135,4.137-4.135
						c2.279,0,4.134,1.855,4.134,4.135C106.814,28.198,104.959,30.053,102.68,30.053z"/>
					<path fill="#E0E1E0" d="M102.68,22.405c1.939,0,3.512,1.572,3.512,3.513s-1.571,3.513-3.512,3.513
						c-1.939,0-3.515-1.572-3.515-3.513S100.739,22.405,102.68,22.405 M102.68,21.161c-2.624,0-4.759,2.134-4.759,4.757
						s2.135,4.757,4.759,4.757c2.622,0,4.756-2.134,4.756-4.757S105.302,21.161,102.68,21.161L102.68,21.161z"/>
				</g>
			</g>
			<g enable-background="new    ">
				<path fill="#FFFFFF" d="M92.865,68.176c0.12,0.167,0.18,0.366,0.18,0.598c0,0.239-0.061,0.432-0.181,0.576
					c-0.068,0.082-0.167,0.156-0.299,0.224c0.2,0.072,0.351,0.188,0.452,0.345c0.102,0.158,0.153,0.35,0.153,0.574
					c0,0.231-0.058,0.439-0.174,0.624c-0.074,0.122-0.167,0.225-0.277,0.308c-0.125,0.096-0.272,0.161-0.442,0.197
					c-0.17,0.035-0.354,0.053-0.553,0.053h-1.764v-3.915h1.892C92.328,67.767,92.666,67.906,92.865,68.176z M90.74,68.44v0.862
					h0.951c0.17,0,0.308-0.032,0.414-0.097s0.159-0.179,0.159-0.344c0-0.183-0.07-0.303-0.21-0.361
					c-0.121-0.041-0.275-0.061-0.462-0.061H90.74z M90.74,69.951v1.044h0.95c0.17,0,0.302-0.023,0.396-0.069
					c0.171-0.085,0.257-0.248,0.257-0.488c0-0.204-0.083-0.344-0.25-0.42c-0.093-0.043-0.223-0.064-0.391-0.066H90.74z"/>
				<path fill="#FFFFFF" d="M96.768,68.453h-2.071v0.831h1.901v0.681h-1.901v1.006h2.167v0.704h-2.967v-3.915h2.871V68.453z"/>
				<path fill="#FFFFFF" d="M97.703,68.891h0.805v0.794h-0.805V68.891z M97.703,70.88h0.805v0.794h-0.805V70.88z"/>
				<path fill="#FFFFFF" d="M102.208,68.453h-2.072v0.831h1.902v0.681h-1.902v1.006h2.167v0.704h-2.967v-3.915h2.872V68.453z"/>
				<path fill="#FFFFFF" d="M105.448,67.861c0.145,0.062,0.268,0.153,0.367,0.273c0.082,0.099,0.148,0.209,0.197,0.329
					c0.048,0.12,0.072,0.258,0.072,0.412c0,0.186-0.047,0.368-0.141,0.548s-0.249,0.307-0.465,0.381
					c0.18,0.073,0.309,0.176,0.383,0.31c0.076,0.134,0.113,0.338,0.113,0.612v0.263c0,0.18,0.008,0.301,0.021,0.364
					c0.021,0.101,0.072,0.175,0.151,0.223v0.099h-0.903c-0.024-0.087-0.042-0.156-0.053-0.21c-0.021-0.109-0.033-0.222-0.035-0.337
					l-0.005-0.364c-0.003-0.249-0.046-0.416-0.13-0.499c-0.082-0.083-0.238-0.125-0.465-0.125h-0.799v1.535h-0.8v-3.915h1.872
					C105.099,67.765,105.305,67.798,105.448,67.861z M103.759,68.44v1.052h0.88c0.175,0,0.306-0.021,0.394-0.064
					c0.154-0.074,0.232-0.221,0.232-0.44c0-0.237-0.076-0.396-0.225-0.479c-0.084-0.046-0.211-0.068-0.379-0.068H103.759z"/>
				<path fill="#FFFFFF" d="M111.008,69.98c-0.229,0.191-0.557,0.287-0.981,0.287h-0.815v1.407h-0.812v-3.915h1.681
					c0.388,0,0.696,0.102,0.927,0.303c0.23,0.202,0.346,0.515,0.346,0.938C111.352,69.462,111.238,69.789,111.008,69.98z
					 M110.384,68.57c-0.104-0.087-0.249-0.13-0.436-0.13h-0.737v1.152h0.737c0.187,0,0.332-0.047,0.436-0.141
					s0.154-0.243,0.154-0.446C110.538,68.801,110.488,68.657,110.384,68.57z"/>
				<path fill="#FFFFFF" d="M114.605,67.759h1.177v3.915h-0.763v-2.647c0-0.076,0.002-0.184,0.004-0.32
					c0.001-0.138,0.002-0.243,0.002-0.317l-0.742,3.285h-0.795l-0.736-3.285c0,0.074,0.001,0.18,0.003,0.317
					c0.001,0.137,0.003,0.244,0.003,0.32v2.647h-0.763v-3.915h1.19l0.713,3.078L114.605,67.759z"/>
			</g>
			<g>
				<rect x="23.705" y="66.788" fill="#FFFFFF" width="1.079" height="4.944"/>
				<rect x="22.18" y="67.68" fill="#FFFFFF" width="1.079" height="4.053"/>
				<rect x="20.653" y="68.571" fill="#FFFFFF" width="1.08" height="3.161"/>
				<rect x="19.128" y="69.462" fill="#FFFFFF" width="1.08" height="2.271"/>
			</g>
			<g>
				<g>
					<path fill="#FFFFFF" d="M184.907,67.709v4.037h-7.979v-4.037H184.907 M185.179,67.437h-0.271h-7.979h-0.271v0.272v4.037v0.272
						h0.271h7.979h0.271v-0.272v-4.037V67.437L185.179,67.437z"/>
				</g>
				<rect x="184.907" y="68.547" fill="#FFFFFF" width="0.736" height="2.362"/>
				<rect x="177.265" y="68.044" fill="#FFFFFF" width="2.9" height="3.367"/>
			</g>
			<rect x="19.274" y="75.245" fill="#FFFFFF" width="166.517" height="26.377"/>
			<g>
				<rect x="25.934" y="82.483" fill="#E93E3C" width="15.41" height="1.902"/>
				<rect x="25.934" y="86.764" fill="#E93E3C" width="15.41" height="1.903"/>
				<rect x="25.934" y="91.044" fill="#E93E3C" width="15.41" height="1.903"/>
			</g>
			<g>
				<g>
					<rect x="97.724" y="81" fill="#E93E3C" width="4.272" height="14.247"/>
					<rect x="103.422" y="81" fill="#E93E3C" width="4.274" height="4.274"/>
					<rect x="103.422" y="90.973" fill="#E93E3C" width="4.274" height="4.274"/>
					<rect x="90.601" y="90.973" fill="#E93E3C" width="4.273" height="4.274"/>
					<rect x="113.396" y="81" fill="#E93E3C" width="4.274" height="4.274"/>
					<rect x="113.396" y="90.973" fill="#E93E3C" width="4.274" height="4.274"/>
					<rect x="87.751" y="81" fill="#E93E3C" width="4.272" height="14.247"/>
					<polygon fill="#BD2827" points="103.422,85.274 106.271,88.124 103.422,90.973 107.697,90.973 110.546,88.124 107.697,85.274 
											"/>
					<polyline fill="#BD2827" points="94.874,95.247 97.724,92.398 97.724,88.124 94.874,90.973 					"/>
					<polygon fill="#BD2827" points="117.67,90.973 114.82,88.124 117.67,85.274 113.396,85.274 110.546,88.124 113.396,90.973 
											"/>
					<polygon fill="#E93E3C" points="89.175,81 86.325,81 87.751,82.425 89.175,82.425 					"/>
					<polygon fill="#E93E3C" points="116.243,95.247 119.095,95.247 117.67,93.822 116.243,93.822 					"/>
				</g>
			</g>
			<path fill="#E93E3C" d="M175.789,90.082h1.523v2.285c0,0.421-0.341,0.762-0.762,0.762h-9.143c-0.422,0-0.763-0.341-0.763-0.762
				v-7.618c0-0.421,0.341-0.763,0.763-0.763h3.047v1.524h-2.285v6.094h7.618L175.789,90.082L175.789,90.082z M178.726,85.622
				l-3.048-3.047c-0.073-0.073-0.17-0.111-0.27-0.111c-0.051,0-0.1,0.009-0.146,0.029c-0.142,0.058-0.234,0.197-0.234,0.351v1.524
				c-2.524,0-4.571,2.387-4.571,5.332c0.763-0.888,2.047-2.285,4.571-2.285v1.523c0,0.154,0.094,0.293,0.234,0.352
				c0.047,0.021,0.096,0.029,0.146,0.029c0.1,0,0.195-0.038,0.27-0.111l3.048-3.048C178.874,86.012,178.874,85.771,178.726,85.622z"
				/>
		</g>
		<g clip-path="url(#SVGID_2_)">
			<rect x="19.42" y="101.622" fill="#F3F3F3" width="166.516" height="198.344"/>
			<rect x="19.42" y="101.622" fill="#CDCCCC" width="166.516" height="24.211"/>
			<g>
				<path fill="#818181" d="M37.41,201.108c-6.037,0-10.933,4.894-10.933,10.931c0,4.478,2.691,8.321,6.543,10.014
					c-0.029-0.764-0.006-1.68,0.19-2.512c0.21-0.888,1.407-5.955,1.407-5.955s-0.351-0.698-0.351-1.729
					c0-1.62,0.939-2.83,2.107-2.83c0.994,0,1.475,0.747,1.475,1.642c0,1-0.637,2.494-0.965,3.879
					c-0.273,1.16,0.582,2.105,1.726,2.105c2.071,0,3.467-2.66,3.467-5.812c0-2.396-1.613-4.188-4.55-4.188
					c-3.314,0-5.381,2.474-5.381,5.235c0,0.951,0.28,1.623,0.722,2.144c0.2,0.239,0.229,0.335,0.155,0.609
					c-0.053,0.2-0.172,0.687-0.223,0.877c-0.072,0.276-0.297,0.376-0.547,0.274c-1.527-0.625-2.238-2.297-2.238-4.178
					c0-3.105,2.618-6.828,7.812-6.828c4.173,0,6.92,3.021,6.92,6.262c0,4.289-2.386,7.492-5.898,7.492
					c-1.18,0-2.29-0.639-2.67-1.363c0,0-0.635,2.52-0.77,3.006c-0.231,0.843-0.687,1.686-1.101,2.342
					c0.982,0.29,2.021,0.448,3.099,0.448c6.035,0,10.931-4.894,10.931-10.933C48.341,206.001,43.446,201.108,37.41,201.108z"/>
			</g>
			<path fill="#818181" d="M48.435,135.945c-0.808,0.359-1.677,0.602-2.587,0.71c0.93-0.559,1.646-1.441,1.98-2.493
				c-0.87,0.517-1.834,0.892-2.861,1.093c-0.82-0.875-1.992-1.422-3.287-1.422c-2.488,0-4.505,2.018-4.505,4.504
				c0,0.354,0.04,0.697,0.116,1.027c-3.743-0.188-7.062-1.981-9.283-4.707c-0.389,0.665-0.611,1.439-0.611,2.264
				c0,1.564,0.796,2.943,2.004,3.751c-0.737-0.023-1.432-0.228-2.039-0.563c-0.001,0.018-0.001,0.037-0.001,0.057
				c0,2.182,1.554,4.004,3.613,4.416c-0.378,0.104-0.775,0.158-1.187,0.158c-0.291,0-0.572-0.027-0.849-0.08
				c0.573,1.789,2.236,3.092,4.208,3.129c-1.542,1.208-3.482,1.927-5.595,1.927c-0.363,0-0.722-0.021-1.074-0.062
				c1.994,1.278,4.361,2.024,6.905,2.024c8.285,0,12.816-6.864,12.816-12.816c0-0.196-0.006-0.39-0.014-0.584
				C47.067,137.642,47.83,136.849,48.435,135.945z"/>
			<g>
				<path fill="#818181" d="M48.34,187.69c0,0.685-0.562,1.245-1.244,1.245H27.797c-0.687,0-1.246-0.561-1.246-1.245v-19.299
					c0-0.685,0.561-1.245,1.246-1.245h19.299c0.684,0,1.244,0.561,1.244,1.245V187.69z"/>
				<rect x="28.107" y="184.267" fill="#B4B4B4" width="18.678" height="3.113"/>
				<path fill="#FFFFFF" d="M39.002,187.38v-8.012h-2.117v-2.884h2.117c0,0,0-1.183,0-2.465c0-1.935,1.252-3.713,4.135-3.713
					c1.167,0,2.03,0.112,2.03,0.112l-0.067,2.692c0,0-0.881-0.009-1.842-0.009c-1.039,0-1.206,0.479-1.206,1.273
					c0,0.629,0-1.34,0,2.106h3.13l-0.137,2.884h-2.993v8.012h-3.05V187.38z"/>
			</g>
			<g enable-background="new    ">
				<path fill="#55889B" d="M66.041,117.5c-0.629,0-1.639-0.21-1.939-0.64c-0.06-0.08-0.09-0.17-0.09-0.271
					c0-0.3,0.26-0.529,0.53-0.529c0.09,0,0.18,0.021,0.26,0.07c0.38,0.22,0.879,0.39,1.299,0.39c0.55,0,0.81-0.22,0.81-0.52
					c0-0.8-2.869-0.15-2.869-2.049c0-0.81,0.71-1.52,1.979-1.52c0.63,0,1.489,0.2,1.759,0.59c0.05,0.069,0.08,0.16,0.08,0.25
					c0,0.27-0.24,0.479-0.5,0.479c-0.08,0-0.17-0.021-0.24-0.06c-0.31-0.181-0.7-0.29-1.089-0.29c-0.46,0-0.76,0.21-0.76,0.479
					c0,0.72,2.858,0.12,2.858,2.068C68.13,116.83,67.381,117.5,66.041,117.5z"/>
				<path fill="#55889B" d="M71.311,117.5c-1.589,0-2.549-1.159-2.549-2.539c0-1.369,0.959-2.528,2.549-2.528
					c1.599,0,2.559,1.159,2.559,2.528C73.87,116.34,72.91,117.5,71.311,117.5z M71.311,113.561c-0.79,0-1.229,0.65-1.229,1.399
					c0,0.76,0.439,1.409,1.229,1.409c0.79,0,1.239-0.649,1.239-1.409C72.551,114.211,72.101,113.561,71.311,113.561z"/>
				<path fill="#55889B" d="M78.59,117.02c-0.35,0.279-0.85,0.479-1.529,0.479c-1.489,0-2.559-1.05-2.559-2.539
					c0-1.479,1.069-2.528,2.559-2.528c0.75,0,1.449,0.27,1.659,0.659c0.04,0.07,0.06,0.15,0.06,0.23c0,0.34-0.32,0.54-0.6,0.54
					c-0.12,0-0.24-0.03-0.35-0.101c-0.21-0.13-0.459-0.2-0.709-0.2c-0.77,0-1.31,0.561-1.31,1.399c0,0.84,0.54,1.409,1.31,1.409
					c0.26,0,0.5-0.069,0.72-0.21c0.11-0.069,0.22-0.1,0.34-0.1c0.31,0,0.609,0.22,0.609,0.55
					C78.79,116.759,78.72,116.919,78.59,117.02z"/>
				<path fill="#55889B" d="M81.191,111.273c0,0.42-0.34,0.76-0.76,0.76c-0.41,0-0.76-0.34-0.76-0.76s0.35-0.75,0.76-0.75
					C80.851,110.523,81.191,110.853,81.191,111.273z M80.431,117.439c-0.35,0-0.629-0.279-0.629-0.629v-3.698
					c0-0.34,0.28-0.62,0.649-0.62c0.34,0,0.62,0.28,0.62,0.62v3.698C81.071,117.16,80.791,117.439,80.431,117.439z"/>
				<path fill="#55889B" d="M85.88,117.439h-0.1c-0.1,0-0.55-0.079-0.55-0.56c-0.33,0.39-0.899,0.62-1.529,0.62
					c-0.77,0-1.679-0.52-1.679-1.6c0-1.129,0.91-1.559,1.679-1.559c0.64,0,1.209,0.21,1.529,0.59v-0.65
					c0-0.489-0.419-0.81-1.059-0.81c-0.38,0-0.75,0.09-1.08,0.311c-0.07,0.04-0.15,0.069-0.23,0.069
					c-0.229,0-0.479-0.189-0.479-0.489c0-0.09,0.03-0.18,0.07-0.25c0.3-0.479,1.379-0.68,1.939-0.68c1.1,0,2.109,0.439,2.109,1.829
					v2.549C86.5,117.16,86.22,117.439,85.88,117.439z M85.23,115.621c-0.209-0.28-0.609-0.42-1.019-0.42
					c-0.5,0-0.91,0.26-0.91,0.729c0,0.45,0.41,0.71,0.91,0.71c0.41,0,0.81-0.141,1.019-0.42V115.621z"/>
				<path fill="#55889B" d="M88.391,117.439c-0.35,0-0.629-0.279-0.629-0.629v-5.537c0-0.34,0.28-0.62,0.649-0.62
					c0.34,0,0.62,0.28,0.62,0.62v5.537C89.031,117.16,88.751,117.439,88.391,117.439z"/>
				<path fill="#55889B" d="M99.468,117.439c-0.35,0-0.63-0.279-0.63-0.629v-2.479c0-0.45-0.2-0.771-0.719-0.771
					c-0.45,0-0.82,0.301-1,0.561v2.688c0,0.35-0.28,0.629-0.65,0.629c-0.35,0-0.629-0.279-0.629-0.629v-2.479
					c0-0.45-0.2-0.771-0.72-0.771c-0.44,0-0.81,0.301-1,0.57v2.679c0,0.35-0.28,0.629-0.64,0.629c-0.35,0-0.629-0.279-0.629-0.629
					v-3.698c0-0.34,0.28-0.62,0.649-0.62c0.34,0,0.62,0.28,0.62,0.62v0.07c0.2-0.29,0.839-0.75,1.579-0.75
					c0.709,0,1.159,0.33,1.339,0.88c0.28-0.44,0.919-0.88,1.659-0.88c0.889,0,1.419,0.47,1.419,1.459v2.919
					C100.117,117.16,99.838,117.439,99.468,117.439z"/>
				<path fill="#55889B" d="M105.369,115.371h-2.979c0.08,0.609,0.569,1.119,1.39,1.119c0.27,0,0.639-0.08,0.939-0.239
					c0.08-0.04,0.17-0.061,0.25-0.061c0.27,0,0.539,0.21,0.539,0.51c0,0.569-1.229,0.8-1.869,0.8c-1.469,0-2.578-0.989-2.578-2.539
					c0-1.399,1.029-2.528,2.498-2.528c1.09,0,1.92,0.63,2.26,1.629c0.069,0.22,0.14,0.49,0.14,0.729
					C105.959,115.101,105.698,115.371,105.369,115.371z M103.56,113.442c-0.789,0-1.129,0.589-1.189,1.069h2.379
					C104.72,114.051,104.4,113.442,103.56,113.442z"/>
				<path fill="#55889B" d="M110.849,117.439c-0.35,0-0.629-0.279-0.629-0.629v-0.051c-0.381,0.48-0.91,0.74-1.49,0.74
					c-1.219,0-2.139-0.92-2.139-2.528c0-1.58,0.91-2.539,2.139-2.539c0.57,0,1.109,0.25,1.49,0.739v-1.889
					c0-0.35,0.279-0.63,0.649-0.63c0.35,0,0.63,0.28,0.63,0.63v5.527C111.499,117.16,111.219,117.439,110.849,117.439z
					 M110.22,114.111c-0.211-0.319-0.67-0.55-1.1-0.55c-0.72,0-1.22,0.57-1.22,1.41c0,0.829,0.5,1.398,1.22,1.398
					c0.43,0,0.889-0.229,1.1-0.55V114.111z"/>
				<path fill="#55889B" d="M114.152,111.273c0,0.42-0.34,0.76-0.76,0.76c-0.41,0-0.76-0.34-0.76-0.76s0.35-0.75,0.76-0.75
					C113.812,110.523,114.152,110.853,114.152,111.273z M113.392,117.439c-0.35,0-0.63-0.279-0.63-0.629v-3.698
					c0-0.34,0.28-0.62,0.649-0.62c0.34,0,0.619,0.28,0.619,0.62v3.698C114.031,117.16,113.751,117.439,113.392,117.439z"/>
				<path fill="#55889B" d="M118.839,117.439h-0.1c-0.1,0-0.55-0.079-0.55-0.56c-0.329,0.39-0.899,0.62-1.528,0.62
					c-0.77,0-1.68-0.52-1.68-1.6c0-1.129,0.91-1.559,1.68-1.559c0.639,0,1.209,0.21,1.528,0.59v-0.65c0-0.489-0.419-0.81-1.06-0.81
					c-0.379,0-0.749,0.09-1.079,0.311c-0.069,0.04-0.149,0.069-0.229,0.069c-0.23,0-0.48-0.189-0.48-0.489
					c0-0.09,0.03-0.18,0.07-0.25c0.3-0.479,1.379-0.68,1.939-0.68c1.1,0,2.108,0.439,2.108,1.829v2.549
					C119.459,117.16,119.179,117.439,118.839,117.439z M118.19,115.621c-0.21-0.28-0.609-0.42-1.019-0.42
					c-0.5,0-0.91,0.26-0.91,0.729c0,0.45,0.41,0.71,0.91,0.71c0.409,0,0.809-0.141,1.019-0.42V115.621z"/>
				<path fill="#55889B" d="M125.021,117.5c-0.63,0-1.64-0.21-1.939-0.64c-0.061-0.08-0.09-0.17-0.09-0.271
					c0-0.3,0.26-0.529,0.529-0.529c0.09,0,0.18,0.021,0.26,0.07c0.381,0.22,0.88,0.39,1.3,0.39c0.55,0,0.81-0.22,0.81-0.52
					c0-0.8-2.869-0.15-2.869-2.049c0-0.81,0.711-1.52,1.979-1.52c0.63,0,1.489,0.2,1.759,0.59c0.051,0.069,0.08,0.16,0.08,0.25
					c0,0.27-0.24,0.479-0.5,0.479c-0.08,0-0.17-0.021-0.239-0.06c-0.31-0.181-0.7-0.29-1.089-0.29c-0.461,0-0.76,0.21-0.76,0.479
					c0,0.72,2.857,0.12,2.857,2.068C127.109,116.83,126.36,117.5,125.021,117.5z"/>
				<path fill="#55889B" d="M132.288,113.341l-1.948,4.828c-0.34,0.839-0.95,1.169-1.659,1.169c-0.439,0-0.779-0.22-0.779-0.569
					c0-0.3,0.24-0.561,0.6-0.561c0.05,0,0.109,0,0.16-0.01c0.209-0.04,0.389-0.14,0.479-0.34l0.18-0.409l-1.649-4.118
					c-0.029-0.07-0.039-0.14-0.039-0.21c0-0.31,0.25-0.63,0.639-0.63c0.25,0,0.49,0.16,0.59,0.42l1.119,2.999l1.119-2.999
					c0.091-0.25,0.34-0.42,0.61-0.42c0.38,0,0.62,0.311,0.62,0.62C132.329,113.192,132.32,113.272,132.288,113.341z"/>
				<path fill="#55889B" d="M137.07,117.439c-0.351,0-0.631-0.279-0.631-0.629v-2.349c0-0.67-0.35-0.9-0.889-0.9
					c-0.5,0-0.89,0.28-1.1,0.57v2.679c0,0.35-0.279,0.629-0.64,0.629c-0.35,0-0.63-0.279-0.63-0.629v-3.698
					c0-0.34,0.28-0.62,0.65-0.62c0.34,0,0.619,0.28,0.619,0.62v0.07c0.311-0.37,0.899-0.75,1.689-0.75
					c1.059,0,1.568,0.6,1.568,1.539v2.839C137.708,117.16,137.429,117.439,137.07,117.439z"/>
				<path fill="#55889B" d="M142.749,117.02c-0.35,0.279-0.85,0.479-1.529,0.479c-1.489,0-2.559-1.05-2.559-2.539
					c0-1.479,1.069-2.528,2.559-2.528c0.75,0,1.449,0.27,1.659,0.659c0.04,0.07,0.06,0.15,0.06,0.23c0,0.34-0.319,0.54-0.6,0.54
					c-0.119,0-0.24-0.03-0.35-0.101c-0.21-0.13-0.459-0.2-0.709-0.2c-0.77,0-1.311,0.561-1.311,1.399
					c0,0.84,0.541,1.409,1.311,1.409c0.26,0,0.499-0.069,0.719-0.21c0.11-0.069,0.221-0.1,0.34-0.1c0.311,0,0.609,0.22,0.609,0.55
					C142.948,116.759,142.879,116.919,142.749,117.02z"/>
			</g>
			<g>
				<rect x="19.42" y="160.146" fill="#FFFFFF" width="166.517" height="1"/>
				<rect x="19.42" y="161.146" fill="#E6E6E5" width="166.517" height="1"/>
			</g>
			<g>
				<rect x="19.42" y="193.65" fill="#FFFFFF" width="166.517" height="1"/>
				<rect x="19.42" y="194.65" fill="#E6E6E5" width="166.517" height="1"/>
			</g>
			<g>
				<rect x="19.42" y="227.513" fill="#FFFFFF" width="166.517" height="1"/>
				<rect x="19.42" y="228.513" fill="#E6E6E5" width="166.517" height="1"/>
			</g>
			<g>
				<path fill="#818181" d="M179.453,152.441c0,0.666-0.545,1.211-1.211,1.211h-41.169c-0.666,0-1.212-0.545-1.212-1.211v-19.372
					c0-0.667,0.546-1.212,1.212-1.212h41.169c0.666,0,1.211,0.545,1.211,1.212V152.441z"/>
				<path fill="#FFFFFF" d="M154.934,149.717c0,0.666-0.545,1.21-1.211,1.21h-13.926c-0.665,0-1.21-0.545-1.21-1.21v-13.924
					c0-0.666,0.545-1.212,1.21-1.212h13.926c0.666,0,1.211,0.546,1.211,1.212V149.717z"/>
				<g enable-background="new    ">
					<path fill="#CDCCCC" d="M164.28,146.209c-1.643,0-2.634-1.198-2.634-2.624c0-1.415,0.991-2.613,2.634-2.613
						c1.653,0,2.645,1.198,2.645,2.613C166.924,145.011,165.933,146.209,164.28,146.209z M164.28,142.139
						c-0.816,0-1.271,0.672-1.271,1.446c0,0.785,0.454,1.457,1.271,1.457c0.815,0,1.28-0.672,1.28-1.457
						C165.56,142.811,165.095,142.139,164.28,142.139z"/>
					<path fill="#CDCCCC" d="M170.604,140.197c-0.155,0-0.248-0.072-0.476-0.072c-0.361,0-0.619,0.238-0.619,0.703v0.269h0.516
						c0.301,0,0.559,0.258,0.559,0.578c0,0.31-0.258,0.568-0.559,0.568h-0.516v3.254c0,0.361-0.289,0.65-0.672,0.65
						c-0.361,0-0.65-0.289-0.65-0.65v-3.254h-0.32c-0.311,0-0.568-0.259-0.568-0.589c0-0.3,0.258-0.558,0.568-0.558h0.32v-0.269
						c0-1.064,0.682-1.735,1.684-1.735c0.713,0,1.178,0.258,1.178,0.609C171.048,140.032,170.81,140.197,170.604,140.197z"/>
					<path fill="#CDCCCC" d="M173.984,140.197c-0.156,0-0.248-0.072-0.476-0.072c-0.362,0-0.62,0.238-0.62,0.703v0.269h0.517
						c0.3,0,0.558,0.258,0.558,0.578c0,0.31-0.258,0.568-0.558,0.568h-0.517v3.254c0,0.361-0.289,0.65-0.672,0.65
						c-0.361,0-0.65-0.289-0.65-0.65v-3.254h-0.32c-0.31,0-0.568-0.259-0.568-0.589c0-0.3,0.259-0.558,0.568-0.558h0.32v-0.269
						c0-1.064,0.682-1.735,1.684-1.735c0.713,0,1.178,0.258,1.178,0.609C174.427,140.032,174.19,140.197,173.984,140.197z"/>
				</g>
				
					<line fill="none" stroke="#818181" stroke-width="1.2109" stroke-linecap="round" x1="141.92" y1="142.756" x2="151.6" y2="142.756"/>
				
					<line fill="none" stroke="#818181" stroke-width="1.2109" stroke-linecap="round" x1="141.92" y1="139.727" x2="151.6" y2="139.727"/>
				
					<line fill="none" stroke="#818181" stroke-width="1.2109" stroke-linecap="round" x1="141.92" y1="145.781" x2="151.6" y2="145.781"/>
			</g>
			<g>
				<path fill="#818181" d="M179.453,187.727c0,0.666-0.545,1.211-1.211,1.211h-41.169c-0.666,0-1.212-0.545-1.212-1.211v-19.372
					c0-0.667,0.546-1.212,1.212-1.212h41.169c0.666,0,1.211,0.545,1.211,1.212V187.727z"/>
				<path fill="#FFFFFF" d="M154.934,185.001c0,0.666-0.545,1.211-1.211,1.211h-13.926c-0.665,0-1.21-0.545-1.21-1.211v-13.924
					c0-0.666,0.545-1.211,1.21-1.211h13.926c0.666,0,1.211,0.545,1.211,1.211V185.001z"/>
				<g enable-background="new    ">
					<path fill="#CDCCCC" d="M164.28,181.495c-1.643,0-2.634-1.198-2.634-2.624c0-1.415,0.991-2.613,2.634-2.613
						c1.653,0,2.645,1.198,2.645,2.613C166.924,180.296,165.933,181.495,164.28,181.495z M164.28,177.424
						c-0.816,0-1.271,0.672-1.271,1.446c0,0.785,0.454,1.457,1.271,1.457c0.815,0,1.28-0.672,1.28-1.457
						C165.56,178.096,165.095,177.424,164.28,177.424z"/>
					<path fill="#CDCCCC" d="M170.604,175.482c-0.155,0-0.248-0.072-0.476-0.072c-0.361,0-0.619,0.238-0.619,0.703v0.269h0.516
						c0.301,0,0.559,0.258,0.559,0.578c0,0.31-0.258,0.568-0.559,0.568h-0.516v3.254c0,0.361-0.289,0.65-0.672,0.65
						c-0.361,0-0.65-0.289-0.65-0.65v-3.254h-0.32c-0.311,0-0.568-0.259-0.568-0.589c0-0.3,0.258-0.558,0.568-0.558h0.32v-0.269
						c0-1.064,0.682-1.735,1.684-1.735c0.713,0,1.178,0.258,1.178,0.609C171.048,175.317,170.81,175.482,170.604,175.482z"/>
					<path fill="#CDCCCC" d="M173.984,175.482c-0.156,0-0.248-0.072-0.476-0.072c-0.362,0-0.62,0.238-0.62,0.703v0.269h0.517
						c0.3,0,0.558,0.258,0.558,0.578c0,0.31-0.258,0.568-0.558,0.568h-0.517v3.254c0,0.361-0.289,0.65-0.672,0.65
						c-0.361,0-0.65-0.289-0.65-0.65v-3.254h-0.32c-0.31,0-0.568-0.259-0.568-0.589c0-0.3,0.259-0.558,0.568-0.558h0.32v-0.269
						c0-1.064,0.682-1.735,1.684-1.735c0.713,0,1.178,0.258,1.178,0.609C174.427,175.317,174.19,175.482,173.984,175.482z"/>
				</g>
				
					<line fill="none" stroke="#818181" stroke-width="1.2109" stroke-linecap="round" x1="141.92" y1="178.041" x2="151.6" y2="178.041"/>
				
					<line fill="none" stroke="#818181" stroke-width="1.2109" stroke-linecap="round" x1="141.92" y1="175.011" x2="151.6" y2="175.011"/>
				
					<line fill="none" stroke="#818181" stroke-width="1.2109" stroke-linecap="round" x1="141.92" y1="181.066" x2="151.6" y2="181.066"/>
			</g>
			<g>
				<path fill="#818181" d="M179.453,221.268c0,0.666-0.545,1.211-1.211,1.211h-41.169c-0.666,0-1.212-0.545-1.212-1.211v-19.372
					c0-0.667,0.546-1.212,1.212-1.212h41.169c0.666,0,1.211,0.545,1.211,1.212V221.268z"/>
				<path fill="#FFFFFF" d="M154.934,218.542c0,0.666-0.545,1.211-1.211,1.211h-13.926c-0.665,0-1.21-0.545-1.21-1.211v-13.924
					c0-0.666,0.545-1.211,1.21-1.211h13.926c0.666,0,1.211,0.545,1.211,1.211V218.542z"/>
				<g enable-background="new    ">
					<path fill="#CDCCCC" d="M164.28,215.036c-1.643,0-2.634-1.198-2.634-2.624c0-1.415,0.991-2.613,2.634-2.613
						c1.653,0,2.645,1.198,2.645,2.613C166.924,213.837,165.933,215.036,164.28,215.036z M164.28,210.965
						c-0.816,0-1.271,0.672-1.271,1.446c0,0.785,0.454,1.457,1.271,1.457c0.815,0,1.28-0.672,1.28-1.457
						C165.56,211.637,165.095,210.965,164.28,210.965z"/>
					<path fill="#CDCCCC" d="M170.604,209.023c-0.155,0-0.248-0.072-0.476-0.072c-0.361,0-0.619,0.238-0.619,0.703v0.269h0.516
						c0.301,0,0.559,0.258,0.559,0.578c0,0.31-0.258,0.568-0.559,0.568h-0.516v3.254c0,0.361-0.289,0.65-0.672,0.65
						c-0.361,0-0.65-0.289-0.65-0.65v-3.254h-0.32c-0.311,0-0.568-0.259-0.568-0.589c0-0.3,0.258-0.558,0.568-0.558h0.32v-0.269
						c0-1.064,0.682-1.735,1.684-1.735c0.713,0,1.178,0.258,1.178,0.609C171.048,208.858,170.81,209.023,170.604,209.023z"/>
					<path fill="#CDCCCC" d="M173.984,209.023c-0.156,0-0.248-0.072-0.476-0.072c-0.362,0-0.62,0.238-0.62,0.703v0.269h0.517
						c0.3,0,0.558,0.258,0.558,0.578c0,0.31-0.258,0.568-0.558,0.568h-0.517v3.254c0,0.361-0.289,0.65-0.672,0.65
						c-0.361,0-0.65-0.289-0.65-0.65v-3.254h-0.32c-0.31,0-0.568-0.259-0.568-0.589c0-0.3,0.259-0.558,0.568-0.558h0.32v-0.269
						c0-1.064,0.682-1.735,1.684-1.735c0.713,0,1.178,0.258,1.178,0.609C174.427,208.858,174.19,209.023,173.984,209.023z"/>
				</g>
				
					<line fill="none" stroke="#818181" stroke-width="1.2109" stroke-linecap="round" x1="141.92" y1="211.582" x2="151.6" y2="211.582"/>
				
					<line fill="none" stroke="#818181" stroke-width="1.2109" stroke-linecap="round" x1="141.92" y1="208.552" x2="151.6" y2="208.552"/>
				
					<line fill="none" stroke="#818181" stroke-width="1.2109" stroke-linecap="round" x1="141.92" y1="214.607" x2="151.6" y2="214.607"/>
			</g>
			<g>
				<path fill="#E93E3C" d="M179.453,270.837c0,2.199-1.801,4-4,4H30.551c-2.2,0-4-1.801-4-4v-30.324c0-2.2,1.8-4,4-4h144.902
					c2.199,0,4,1.8,4,4V270.837L179.453,270.837z"/>
			</g>
			<g enable-background="new    ">
				<path fill="#FFFFFF" d="M64.199,252.617c-0.58,0-1.109-0.26-1.489-0.74v0.051c0,0.35-0.28,0.629-0.64,0.629
					c-0.35,0-0.629-0.279-0.629-0.629v-5.537c0-0.34,0.28-0.62,0.649-0.62c0.34,0,0.62,0.28,0.62,0.62v1.898
					c0.38-0.489,0.919-0.739,1.489-0.739c1.229,0,2.139,0.959,2.139,2.539C66.338,251.697,65.419,252.617,64.199,252.617z
					 M63.8,248.678c-0.41,0-0.879,0.24-1.089,0.561v1.709c0.21,0.31,0.68,0.539,1.089,0.539c0.74,0,1.229-0.56,1.229-1.398
					C65.029,249.249,64.539,248.678,63.8,248.678z"/>
				<path fill="#FFFFFF" d="M71.299,250.488H68.32c0.08,0.609,0.57,1.119,1.39,1.119c0.27,0,0.64-0.08,0.939-0.239
					c0.08-0.04,0.17-0.061,0.25-0.061c0.27,0,0.54,0.21,0.54,0.51c0,0.569-1.229,0.8-1.869,0.8c-1.469,0-2.579-0.989-2.579-2.539
					c0-1.399,1.029-2.528,2.499-2.528c1.089,0,1.919,0.63,2.259,1.629c0.07,0.22,0.14,0.49,0.14,0.729
					C71.888,250.218,71.629,250.488,71.299,250.488z M69.49,248.559c-0.79,0-1.129,0.589-1.189,1.069h2.379
					C70.649,249.168,70.329,248.559,69.49,248.559z"/>
				<path fill="#FFFFFF" d="M76.829,250.488H73.85c0.08,0.609,0.57,1.119,1.39,1.119c0.27,0,0.64-0.08,0.939-0.239
					c0.08-0.04,0.17-0.061,0.25-0.061c0.27,0,0.54,0.21,0.54,0.51c0,0.569-1.229,0.8-1.869,0.8c-1.469,0-2.579-0.989-2.579-2.539
					c0-1.399,1.029-2.528,2.499-2.528c1.089,0,1.919,0.63,2.259,1.629c0.07,0.22,0.14,0.49,0.14,0.729
					C77.419,250.218,77.159,250.488,76.829,250.488z M75.02,248.559c-0.79,0-1.129,0.589-1.189,1.069h2.379
					C76.179,249.168,75.86,248.559,75.02,248.559z"/>
				<path fill="#FFFFFF" d="M80.619,248.798c-0.39,0.05-0.759,0.21-0.989,0.51v2.619c0,0.35-0.28,0.629-0.62,0.629h-0.02
					c-0.35,0-0.629-0.279-0.629-0.629v-3.698c0-0.34,0.28-0.62,0.649-0.62c0.34,0,0.62,0.28,0.62,0.62v0.1
					c0.24-0.319,0.56-0.699,1.04-0.699c0.37,0,0.56,0.229,0.56,0.52C81.229,248.529,80.969,248.749,80.619,248.798z"/>
				<path fill="#FFFFFF" d="M83.699,252.617c-0.629,0-1.639-0.21-1.939-0.64c-0.06-0.08-0.09-0.17-0.09-0.271
					c0-0.3,0.26-0.529,0.53-0.529c0.09,0,0.18,0.021,0.26,0.07c0.38,0.22,0.879,0.39,1.299,0.39c0.55,0,0.81-0.22,0.81-0.52
					c0-0.8-2.869-0.15-2.869-2.049c0-0.81,0.71-1.52,1.979-1.52c0.63,0,1.489,0.2,1.759,0.59c0.05,0.069,0.08,0.16,0.08,0.25
					c0,0.27-0.24,0.479-0.5,0.479c-0.08,0-0.17-0.021-0.24-0.06c-0.31-0.181-0.7-0.29-1.089-0.29c-0.46,0-0.76,0.21-0.76,0.479
					c0,0.72,2.858,0.12,2.858,2.068C85.788,251.947,85.039,252.617,83.699,252.617z"/>
				<path fill="#FFFFFF" d="M96.127,248.399l-1.079,3.538c-0.11,0.359-0.46,0.619-0.83,0.619h-0.02c-0.39,0-0.73-0.249-0.84-0.619
					l-0.85-2.729l-0.849,2.729c-0.11,0.359-0.46,0.619-0.84,0.619H90.8c-0.38,0-0.729-0.26-0.839-0.619l-1.08-3.538
					c-0.02-0.061-0.03-0.12-0.03-0.18c0-0.311,0.26-0.61,0.64-0.61c0.27,0,0.53,0.181,0.6,0.45l0.79,2.858l0.91-2.799
					c0.1-0.3,0.39-0.51,0.729-0.51c0.31,0,0.6,0.21,0.7,0.51l0.909,2.799l0.79-2.858c0.07-0.27,0.33-0.45,0.61-0.45
					c0.37,0,0.63,0.29,0.63,0.61C96.157,248.279,96.147,248.338,96.127,248.399z"/>
				<path fill="#FFFFFF" d="M98.37,246.39c0,0.42-0.34,0.76-0.76,0.76c-0.41,0-0.76-0.34-0.76-0.76s0.35-0.75,0.76-0.75
					C98.03,245.64,98.37,245.97,98.37,246.39z M97.61,252.556c-0.35,0-0.629-0.279-0.629-0.629v-3.698c0-0.34,0.28-0.62,0.649-0.62
					c0.34,0,0.62,0.28,0.62,0.62v3.698C98.25,252.277,97.97,252.556,97.61,252.556z"/>
				<path fill="#FFFFFF" d="M101.129,252.617c-0.889,0-1.369-0.46-1.369-1.319v-2.519h-0.31c-0.3,0-0.55-0.25-0.55-0.57
					c0-0.289,0.25-0.539,0.55-0.539h0.31v-0.75c0-0.35,0.28-0.63,0.65-0.63c0.35,0,0.629,0.28,0.629,0.63v0.75h0.5
					c0.29,0,0.54,0.25,0.54,0.56c0,0.3-0.25,0.55-0.54,0.55h-0.5v2.179c0,0.38,0.24,0.529,0.44,0.529c0.03,0,0.08,0,0.11,0
					c0.359,0,0.56,0.24,0.56,0.55C102.149,252.357,101.958,252.617,101.129,252.617z"/>
				<path fill="#FFFFFF" d="M106.788,252.556c-0.35,0-0.63-0.279-0.63-0.629v-2.369c0-0.67-0.351-0.88-0.899-0.88
					c-0.49,0-0.88,0.28-1.1,0.57v2.679c0,0.35-0.279,0.629-0.64,0.629c-0.35,0-0.63-0.279-0.63-0.629v-5.537
					c0-0.34,0.28-0.62,0.65-0.62c0.34,0,0.619,0.28,0.619,0.62v1.909c0.311-0.37,0.91-0.75,1.699-0.75
					c1.059,0,1.568,0.58,1.568,1.52v2.858C107.427,252.277,107.148,252.556,106.788,252.556z"/>
				<path fill="#FFFFFF" d="M112.868,252.617c-0.889,0-1.369-0.46-1.369-1.319v-2.519h-0.309c-0.301,0-0.551-0.25-0.551-0.57
					c0-0.289,0.25-0.539,0.551-0.539h0.309v-0.75c0-0.35,0.28-0.63,0.65-0.63c0.35,0,0.629,0.28,0.629,0.63v0.75h0.5
					c0.29,0,0.54,0.25,0.54,0.56c0,0.3-0.25,0.55-0.54,0.55h-0.5v2.179c0,0.38,0.24,0.529,0.44,0.529c0.03,0,0.08,0,0.11,0
					c0.359,0,0.559,0.24,0.559,0.55C113.888,252.357,113.698,252.617,112.868,252.617z"/>
				<path fill="#FFFFFF" d="M118.529,252.556c-0.35,0-0.63-0.279-0.63-0.629v-2.369c0-0.67-0.351-0.88-0.899-0.88
					c-0.49,0-0.88,0.28-1.1,0.57v2.679c0,0.35-0.279,0.629-0.64,0.629c-0.35,0-0.63-0.279-0.63-0.629v-5.537
					c0-0.34,0.28-0.62,0.65-0.62c0.34,0,0.619,0.28,0.619,0.62v1.909c0.311-0.37,0.91-0.75,1.699-0.75
					c1.059,0,1.568,0.58,1.568,1.52v2.858C119.167,252.277,118.888,252.556,118.529,252.556z"/>
				<path fill="#FFFFFF" d="M124.428,250.488h-2.979c0.08,0.609,0.569,1.119,1.39,1.119c0.27,0,0.639-0.08,0.939-0.239
					c0.08-0.04,0.17-0.061,0.25-0.061c0.27,0,0.539,0.21,0.539,0.51c0,0.569-1.229,0.8-1.869,0.8c-1.469,0-2.578-0.989-2.578-2.539
					c0-1.399,1.029-2.528,2.498-2.528c1.09,0,1.92,0.63,2.26,1.629c0.069,0.22,0.14,0.49,0.14,0.729
					C125.018,250.218,124.757,250.488,124.428,250.488z M122.618,248.559c-0.789,0-1.129,0.589-1.189,1.069h2.379
					C123.779,249.168,123.458,248.559,122.618,248.559z"/>
				<path fill="#FFFFFF" d="M130.139,252.617c-0.89,0-1.369-0.46-1.369-1.319v-2.519h-0.31c-0.3,0-0.55-0.25-0.55-0.57
					c0-0.289,0.25-0.539,0.55-0.539h0.31v-0.75c0-0.35,0.28-0.63,0.649-0.63c0.35,0,0.63,0.28,0.63,0.63v0.75h0.5
					c0.29,0,0.54,0.25,0.54,0.56c0,0.3-0.25,0.55-0.54,0.55h-0.5v2.179c0,0.38,0.239,0.529,0.44,0.529c0.029,0,0.08,0,0.109,0
					c0.359,0,0.56,0.24,0.56,0.55C131.158,252.357,130.968,252.617,130.139,252.617z"/>
				<path fill="#FFFFFF" d="M135.898,250.488h-2.979c0.08,0.609,0.57,1.119,1.389,1.119c0.271,0,0.641-0.08,0.94-0.239
					c0.079-0.04,0.17-0.061,0.249-0.061c0.271,0,0.541,0.21,0.541,0.51c0,0.569-1.23,0.8-1.869,0.8c-1.47,0-2.579-0.989-2.579-2.539
					c0-1.399,1.029-2.528,2.499-2.528c1.089,0,1.918,0.63,2.258,1.629c0.07,0.22,0.141,0.49,0.141,0.729
					C136.488,250.218,136.228,250.488,135.898,250.488z M134.089,248.559c-0.79,0-1.13,0.589-1.189,1.069h2.379
					C135.248,249.168,134.929,248.559,134.089,248.559z"/>
				<path fill="#FFFFFF" d="M140.978,252.556h-0.1c-0.1,0-0.551-0.079-0.551-0.56c-0.329,0.39-0.898,0.62-1.528,0.62
					c-0.77,0-1.679-0.52-1.679-1.6c0-1.129,0.909-1.559,1.679-1.559c0.64,0,1.209,0.21,1.528,0.59v-0.65
					c0-0.489-0.419-0.81-1.059-0.81c-0.38,0-0.75,0.09-1.08,0.311c-0.069,0.04-0.149,0.069-0.229,0.069
					c-0.229,0-0.479-0.189-0.479-0.489c0-0.09,0.029-0.18,0.07-0.25c0.299-0.479,1.379-0.68,1.938-0.68
					c1.1,0,2.108,0.439,2.108,1.829v2.549C141.597,252.277,141.318,252.556,140.978,252.556z M140.327,250.738
					c-0.209-0.28-0.609-0.42-1.019-0.42c-0.5,0-0.909,0.26-0.909,0.729c0,0.45,0.409,0.71,0.909,0.71c0.409,0,0.81-0.141,1.019-0.42
					V250.738z"/>
				<path fill="#FFFFFF" d="M149.476,252.556c-0.35,0-0.629-0.279-0.629-0.629v-2.479c0-0.45-0.2-0.771-0.72-0.771
					c-0.45,0-0.819,0.301-0.999,0.561v2.688c0,0.35-0.28,0.629-0.65,0.629c-0.35,0-0.629-0.279-0.629-0.629v-2.479
					c0-0.45-0.201-0.771-0.721-0.771c-0.439,0-0.809,0.301-0.999,0.57v2.679c0,0.35-0.28,0.629-0.64,0.629
					c-0.35,0-0.629-0.279-0.629-0.629v-3.698c0-0.34,0.279-0.62,0.648-0.62c0.34,0,0.62,0.28,0.62,0.62v0.07
					c0.2-0.29,0.839-0.75,1.579-0.75c0.709,0,1.16,0.33,1.34,0.88c0.279-0.44,0.919-0.88,1.658-0.88c0.89,0,1.42,0.47,1.42,1.459
					v2.919C150.126,252.277,149.846,252.556,149.476,252.556z"/>
				<path fill="#FFFFFF" d="M157.488,252.556h-0.1c-0.1,0-0.55-0.079-0.55-0.56c-0.329,0.39-0.899,0.62-1.528,0.62
					c-0.77,0-1.68-0.52-1.68-1.6c0-1.129,0.91-1.559,1.68-1.559c0.639,0,1.209,0.21,1.528,0.59v-0.65c0-0.489-0.419-0.81-1.06-0.81
					c-0.379,0-0.749,0.09-1.079,0.311c-0.069,0.04-0.149,0.069-0.229,0.069c-0.23,0-0.48-0.189-0.48-0.489
					c0-0.09,0.03-0.18,0.07-0.25c0.3-0.479,1.379-0.68,1.939-0.68c1.1,0,2.108,0.439,2.108,1.829v2.549
					C158.108,252.277,157.827,252.556,157.488,252.556z M156.838,250.738c-0.21-0.28-0.609-0.42-1.019-0.42
					c-0.5,0-0.91,0.26-0.91,0.729c0,0.45,0.41,0.71,0.91,0.71c0.409,0,0.809-0.141,1.019-0.42V250.738z"/>
				<path fill="#FFFFFF" d="M160.989,252.617c-0.89,0-1.369-0.46-1.369-1.319v-2.519h-0.31c-0.3,0-0.55-0.25-0.55-0.57
					c0-0.289,0.25-0.539,0.55-0.539h0.31v-0.75c0-0.35,0.28-0.63,0.649-0.63c0.35,0,0.63,0.28,0.63,0.63v0.75h0.5
					c0.29,0,0.54,0.25,0.54,0.56c0,0.3-0.25,0.55-0.54,0.55h-0.5v2.179c0,0.38,0.239,0.529,0.44,0.529c0.029,0,0.08,0,0.109,0
					c0.359,0,0.56,0.24,0.56,0.55C162.008,252.357,161.818,252.617,160.989,252.617z"/>
			</g>
			<g enable-background="new    ">
				<path fill="#FFFFFF" d="M64.03,264.617c-2.029,0-2.878-1.56-2.878-3.438c0-2.019,1.139-3.448,3.108-3.448
					c0.649,0,1.489,0.19,1.739,0.63c0.04,0.08,0.07,0.17,0.07,0.27c0,0.38-0.34,0.62-0.65,0.62c-0.1,0-0.2-0.021-0.29-0.07
					c-0.25-0.13-0.529-0.189-0.869-0.189c-0.979,0-1.669,0.829-1.669,1.889c0,0.05,0,0.09,0.01,0.14
					c0.31-0.449,0.979-0.859,1.709-0.859c1.199,0,2.269,0.75,2.269,2.169C66.578,263.627,65.549,264.617,64.03,264.617z
					 M63.9,261.378c-0.5,0-0.979,0.229-1.299,0.63c0.06,0.64,0.42,1.349,1.349,1.349c0.77,0,1.189-0.51,1.189-0.979
					C65.139,261.678,64.539,261.378,63.9,261.378z"/>
				<path fill="#FFFFFF" d="M68.171,261.218c-0.44,0-0.81-0.37-0.81-0.81s0.37-0.81,0.81-0.81s0.81,0.37,0.81,0.81
					S68.611,261.218,68.171,261.218z M68.171,264.607c-0.44,0-0.81-0.37-0.81-0.81c0-0.44,0.37-0.81,0.81-0.81s0.81,0.369,0.81,0.81
					C68.98,264.237,68.611,264.607,68.171,264.607z"/>
				<path fill="#FFFFFF" d="M72.499,264.617c-1.909,0-2.758-1.729-2.758-3.448s0.85-3.438,2.758-3.438
					c1.899,0,2.759,1.72,2.759,3.438S74.398,264.617,72.499,264.617z M72.499,258.99c-0.959,0-1.319,0.949-1.319,2.179
					s0.36,2.188,1.319,2.188c0.95,0,1.31-0.959,1.31-2.188S73.449,258.99,72.499,258.99z"/>
				<path fill="#FFFFFF" d="M78.699,264.617c-1.909,0-2.758-1.729-2.758-3.448s0.85-3.438,2.758-3.438
					c1.899,0,2.759,1.72,2.759,3.438S80.598,264.617,78.699,264.617z M78.699,258.99c-0.959,0-1.319,0.949-1.319,2.179
					s0.36,2.188,1.319,2.188c0.95,0,1.31-0.959,1.31-2.188S79.649,258.99,78.699,258.99z"/>
				<path fill="#FFFFFF" d="M85.189,264.617c-0.57,0-1.1-0.24-1.489-0.74v1.899c0,0.34-0.28,0.62-0.64,0.62
					c-0.35,0-0.629-0.28-0.629-0.62v-5.547c0-0.34,0.28-0.62,0.649-0.62c0.34,0,0.62,0.28,0.62,0.62v0.05
					c0.37-0.47,0.899-0.729,1.489-0.729c1.239,0,2.139,0.92,2.139,2.528C87.328,263.687,86.428,264.617,85.189,264.617z
					 M84.789,260.678c-0.41,0-0.879,0.24-1.089,0.55v1.709c0.21,0.3,0.68,0.55,1.089,0.55c0.729,0,1.219-0.569,1.219-1.409
					C86.009,261.249,85.519,260.678,84.789,260.678z"/>
				<path fill="#FFFFFF" d="M94.877,264.556c-0.35,0-0.63-0.279-0.63-0.629v-2.479c0-0.45-0.2-0.771-0.719-0.771
					c-0.45,0-0.82,0.301-1,0.561v2.688c0,0.35-0.28,0.629-0.65,0.629c-0.35,0-0.629-0.279-0.629-0.629v-2.479
					c0-0.45-0.2-0.771-0.72-0.771c-0.44,0-0.81,0.301-1,0.57v2.679c0,0.35-0.28,0.629-0.64,0.629c-0.35,0-0.629-0.279-0.629-0.629
					v-3.698c0-0.34,0.28-0.62,0.649-0.62c0.34,0,0.62,0.28,0.62,0.62v0.07c0.2-0.29,0.839-0.75,1.579-0.75
					c0.709,0,1.159,0.33,1.339,0.88c0.28-0.44,0.919-0.88,1.659-0.88c0.889,0,1.419,0.47,1.419,1.459v2.919
					C95.527,264.277,95.247,264.556,94.877,264.556z"/>
				<path fill="#FFFFFF" d="M100.959,264.617c-0.889,0-1.369-0.46-1.369-1.319v-2.519h-0.31c-0.3,0-0.55-0.25-0.55-0.57
					c0-0.289,0.25-0.539,0.55-0.539h0.31v-0.75c0-0.35,0.28-0.63,0.65-0.63c0.35,0,0.629,0.28,0.629,0.63v0.75h0.5
					c0.29,0,0.54,0.25,0.54,0.56c0,0.3-0.25,0.55-0.54,0.55h-0.5v2.179c0,0.38,0.24,0.529,0.44,0.529c0.03,0,0.08,0,0.11,0
					c0.36,0,0.56,0.24,0.56,0.55C101.979,264.357,101.789,264.617,100.959,264.617z"/>
				<path fill="#FFFFFF" d="M104.959,264.617c-1.589,0-2.549-1.159-2.549-2.539c0-1.369,0.96-2.528,2.549-2.528
					c1.599,0,2.559,1.159,2.559,2.528C107.518,263.458,106.558,264.617,104.959,264.617z M104.959,260.678
					c-0.79,0-1.229,0.65-1.229,1.399c0,0.76,0.439,1.409,1.229,1.409s1.239-0.649,1.239-1.409
					C106.198,261.329,105.749,260.678,104.959,260.678z"/>
				<path fill="#FFFFFF" d="M112.408,264.556c-0.351,0-0.63-0.279-0.63-0.629v-0.051c-0.38,0.48-0.91,0.74-1.489,0.74
					c-1.22,0-2.139-0.92-2.139-2.528c0-1.58,0.909-2.539,2.139-2.539c0.569,0,1.109,0.25,1.489,0.739V258.4
					c0-0.35,0.279-0.63,0.65-0.63c0.35,0,0.629,0.28,0.629,0.63v5.527C113.058,264.277,112.779,264.556,112.408,264.556z
					 M111.779,261.228c-0.21-0.319-0.67-0.55-1.1-0.55c-0.719,0-1.219,0.57-1.219,1.41c0,0.829,0.5,1.398,1.219,1.398
					c0.43,0,0.89-0.229,1.1-0.55V261.228z"/>
				<path fill="#FFFFFF" d="M117.868,264.556h-0.1c-0.1,0-0.551-0.079-0.551-0.56c-0.329,0.39-0.898,0.62-1.528,0.62
					c-0.77,0-1.679-0.52-1.679-1.6c0-1.129,0.909-1.559,1.679-1.559c0.64,0,1.209,0.21,1.528,0.59v-0.65
					c0-0.489-0.419-0.81-1.059-0.81c-0.38,0-0.75,0.09-1.08,0.311c-0.069,0.04-0.149,0.069-0.229,0.069
					c-0.229,0-0.479-0.189-0.479-0.489c0-0.09,0.029-0.18,0.07-0.25c0.299-0.479,1.379-0.68,1.938-0.68
					c1.1,0,2.108,0.439,2.108,1.829v2.549C118.488,264.277,118.208,264.556,117.868,264.556z M117.218,262.738
					c-0.209-0.28-0.609-0.42-1.019-0.42c-0.5,0-0.909,0.26-0.909,0.729c0,0.45,0.409,0.71,0.909,0.71c0.409,0,0.81-0.141,1.019-0.42
					V262.738z"/>
				<path fill="#FFFFFF" d="M123.988,260.458l-1.948,4.828c-0.34,0.839-0.95,1.169-1.659,1.169c-0.439,0-0.779-0.22-0.779-0.569
					c0-0.3,0.24-0.561,0.6-0.561c0.05,0,0.109,0,0.16-0.01c0.209-0.04,0.389-0.14,0.479-0.34l0.18-0.409l-1.649-4.118
					c-0.029-0.07-0.039-0.14-0.039-0.21c0-0.31,0.25-0.63,0.639-0.63c0.25,0,0.49,0.16,0.59,0.42l1.119,2.999l1.119-2.999
					c0.091-0.25,0.34-0.42,0.61-0.42c0.38,0,0.62,0.311,0.62,0.62C124.029,260.309,124.019,260.389,123.988,260.458z"/>
			</g>
			<g>
				<path fill="#FFFFFF" d="M49.656,252.937h-2.053v-1.367H36.654v14.369c0,0.377,0.31,0.686,0.687,0.686h9.578
					c0.377,0,0.686-0.309,0.686-0.686v-3.421h2.054c1.133,0,2.053-0.92,2.053-2.054v-5.475
					C51.709,253.856,50.789,252.937,49.656,252.937z M49.656,260.464h-2.053v-5.475h2.053V260.464z"/>
				<path fill="#FFFFFF" d="M46.202,247.813c0.02-0.114,0.031-0.229,0.031-0.351c0-1.135-0.92-2.053-2.053-2.053
					c-0.366,0-0.71,0.098-1.008,0.266c-0.364-0.57-1.002-0.949-1.729-0.949c-1.135,0-2.053,0.918-2.053,2.052
					c0,0.022,0.002,0.046,0.002,0.068c-1.562,0.315-2.74,1.696-2.74,3.354h10.949C47.604,249.175,47.037,248.283,46.202,247.813z"/>
			</g>
		</g>
	</g>
</g>
</svg>
