<svg version="1.1" id="Layer_1" xmlns="http://www.w3.org/2000/svg" xmlns:xlink="http://www.w3.org/1999/xlink" x="0px" y="0px"
	 width="202.682px" height="299.546px" viewBox="0 0 202.682 299.546" enable-background="new 0 0 202.682 299.546"
	 xml:space="preserve">
<g>
	<g>
		<defs>
			<rect id="SVGID_1_" x="0" width="202.682" height="299.546"/>
		</defs>
		<clipPath id="SVGID_2_">
			<use xlink:href="#SVGID_1_"  overflow="visible"/>
		</clipPath>
		<g clip-path="url(#SVGID_2_)">
			<g>
				<g>
					<g>
						<path fill="#E6E6E5" d="M6.638,115.34c0,0.342-0.28,0.622-0.622,0.622H0.622c-0.343,0-0.622-0.28-0.622-0.622v-12.812
							c0-0.342,0.279-0.622,0.622-0.622h5.394c0.342,0,0.622,0.28,0.622,0.622V115.34z"/>
					</g>
					<g>
						<path fill="#E6E6E5" d="M6.638,80.785c0,0.342-0.28,0.622-0.622,0.622H0.622C0.28,81.407,0,81.127,0,80.785v-16.52
							c0-0.342,0.279-0.622,0.622-0.622h5.394c0.342,0,0.622,0.28,0.622,0.622V80.785z"/>
					</g>
					<g>
						<path fill="#E6E6E5" d="M129.061,6.638c-0.342,0-0.622-0.28-0.622-0.622V0.622c0-0.342,0.28-0.622,0.622-0.622h29.934
							c0.342,0,0.622,0.28,0.622,0.622v5.394c0,0.342-0.28,0.622-0.622,0.622H129.061z"/>
					</g>
					<g>
						<path fill="#E6E6E5" d="M6.638,149.504c0,0.342-0.28,0.622-0.622,0.622H0.622c-0.343,0-0.622-0.28-0.622-0.622v-12.812
							c0-0.342,0.279-0.622,0.622-0.622h5.394c0.342,0,0.622,0.28,0.622,0.622V149.504z"/>
					</g>
					<g>
						<path fill="#F3F3F3" d="M29.76,419.603c-13.204,0-23.947-10.742-23.947-23.945V29.629c0-13.205,10.743-23.947,23.947-23.947
							h145.839c13.204,0,23.947,10.742,23.947,23.947v366.029c0,13.203-10.743,23.945-23.947,23.945H29.76z"/>
						<path fill="#E0E1E0" d="M175.599,6.615c12.689,0,23.014,10.324,23.014,23.014v366.029c0,12.688-10.323,23.014-23.014,23.014
							H29.76c-12.69,0-23.014-10.324-23.014-23.014V29.629c0-12.69,10.323-23.014,23.014-23.014H175.599 M175.599,4.749H29.76
							c-13.684,0-24.88,11.196-24.88,24.88v366.029c0,13.684,11.196,24.879,24.88,24.879h145.839
							c13.685,0,24.88-11.195,24.88-24.879V29.629C200.479,15.945,189.282,4.749,175.599,4.749L175.599,4.749z"/>
					</g>
					<g>
						<path fill="#FFFFFF" d="M175.599,4.749c13.685,0,24.88,11.196,24.88,24.88v366.029c0,13.684-11.195,24.879-24.88,24.879H29.76
							c-13.684,0-24.88-11.195-24.88-24.879V29.629c0-13.684,11.196-24.88,24.88-24.88H175.599 M175.599,2.883H29.76
							c-14.748,0-26.746,11.999-26.746,26.746v366.029c0,14.748,11.999,26.746,26.746,26.746h145.839
							c14.748,0,26.746-11.998,26.746-26.746V29.629C202.345,14.881,190.347,2.883,175.599,2.883L175.599,2.883z"/>
					</g>
					<g>
						<path fill="#1A1A1A" d="M188.181,360.646c0,1.025-0.84,1.866-1.866,1.866H19.043c-1.026,0-1.866-0.841-1.866-1.866V65.41
							c0-1.026,0.84-1.866,1.866-1.866h167.271c1.026,0,1.866,0.84,1.866,1.866L188.181,360.646L188.181,360.646z"/>
					</g>
					<circle fill="#CDCCCC" cx="102.679" cy="388.977" r="18.813"/>
					<g>
						<path fill="none" stroke="#FFFFFF" stroke-width="1.244" stroke-miterlimit="10" d="M109.59,394.309
							c0,1.026-0.84,1.866-1.866,1.866H97.635c-1.026,0-1.866-0.84-1.866-1.866v-10.595c0-1.025,0.84-1.865,1.866-1.865h10.089
							c1.026,0,1.866,0.84,1.866,1.865V394.309z"/>
					</g>
					<polygon opacity="0.04" fill="#F3F3F3" enable-background="new    " points="188.181,185.597 188.181,63.544 112.286,63.544 
											"/>
					<path opacity="0.25" fill="#F3F3F3" enable-background="new    " d="M169.243,4.749H75.726l36.562,58.795h75.895v122.053
						l12.298,19.777V35.983C200.479,18.805,186.423,4.749,169.243,4.749z"/>
					<g>
						<path fill="#B4B4B4" d="M88.486,46.173c-2.684,0-4.867-2.185-4.867-4.869c0-2.684,2.184-4.869,4.867-4.869h28.386
							c2.685,0,4.869,2.185,4.869,4.869c0,2.684-2.186,4.869-4.869,4.869H88.486z"/>
						<path fill="#E0E1E0" d="M116.871,37.057c2.346,0,4.247,1.901,4.247,4.247c0,2.346-1.901,4.247-4.247,4.247H88.486
							c-2.346,0-4.245-1.901-4.245-4.247c0-2.346,1.899-4.247,4.245-4.247H116.871 M116.871,35.812H88.486
							c-3.026,0-5.489,2.463-5.489,5.491c0,3.028,2.463,5.491,5.489,5.491h28.386c3.026,0,5.49-2.463,5.49-5.491
							C122.362,38.275,119.898,35.812,116.871,35.812L116.871,35.812z"/>
					</g>
					<g>
						<path fill="#B4B4B4" d="M102.68,30.053c-2.281,0-4.137-1.854-4.137-4.135c0-2.28,1.855-4.135,4.137-4.135
							c2.279,0,4.134,1.855,4.134,4.135C106.814,28.198,104.959,30.053,102.68,30.053z"/>
						<path fill="#E0E1E0" d="M102.68,22.405c1.939,0,3.512,1.572,3.512,3.513s-1.571,3.513-3.512,3.513
							c-1.939,0-3.515-1.572-3.515-3.513S100.739,22.405,102.68,22.405 M102.68,21.161c-2.624,0-4.759,2.134-4.759,4.757
							s2.135,4.757,4.759,4.757c2.622,0,4.756-2.134,4.756-4.757S105.302,21.161,102.68,21.161L102.68,21.161z"/>
					</g>
				</g>
				<g enable-background="new    ">
					<path fill="#FFFFFF" d="M92.865,68.176c0.12,0.167,0.18,0.366,0.18,0.598c0,0.239-0.061,0.432-0.181,0.576
						c-0.068,0.082-0.167,0.156-0.299,0.224c0.2,0.072,0.351,0.188,0.452,0.345c0.102,0.158,0.153,0.35,0.153,0.574
						c0,0.231-0.058,0.439-0.174,0.624c-0.074,0.122-0.167,0.225-0.277,0.308c-0.125,0.096-0.272,0.161-0.442,0.197
						c-0.17,0.035-0.354,0.053-0.553,0.053h-1.764v-3.915h1.892C92.328,67.767,92.666,67.906,92.865,68.176z M90.74,68.44v0.862
						h0.951c0.17,0,0.308-0.032,0.414-0.097s0.159-0.179,0.159-0.344c0-0.183-0.07-0.303-0.21-0.361
						c-0.121-0.041-0.275-0.061-0.462-0.061H90.74z M90.74,69.951v1.044h0.95c0.17,0,0.302-0.023,0.396-0.069
						c0.171-0.085,0.257-0.248,0.257-0.488c0-0.204-0.083-0.344-0.25-0.42c-0.093-0.043-0.223-0.064-0.391-0.066H90.74z"/>
					<path fill="#FFFFFF" d="M96.768,68.453h-2.071v0.831h1.901v0.681h-1.901v1.006h2.167v0.704h-2.967v-3.915h2.871V68.453z"/>
					<path fill="#FFFFFF" d="M97.703,68.891h0.805v0.794h-0.805V68.891z M97.703,70.88h0.805v0.794h-0.805V70.88z"/>
					<path fill="#FFFFFF" d="M102.208,68.453h-2.072v0.831h1.902v0.681h-1.902v1.006h2.167v0.704h-2.967v-3.915h2.872V68.453z"/>
					<path fill="#FFFFFF" d="M105.448,67.861c0.145,0.062,0.268,0.153,0.367,0.273c0.082,0.099,0.148,0.209,0.197,0.329
						c0.048,0.12,0.072,0.258,0.072,0.412c0,0.186-0.047,0.368-0.141,0.548s-0.249,0.307-0.465,0.381
						c0.18,0.073,0.309,0.176,0.383,0.31c0.076,0.134,0.113,0.338,0.113,0.612v0.263c0,0.18,0.008,0.301,0.021,0.364
						c0.021,0.101,0.072,0.175,0.151,0.223v0.099h-0.903c-0.024-0.087-0.042-0.156-0.053-0.21c-0.021-0.109-0.033-0.222-0.035-0.337
						l-0.005-0.364c-0.003-0.249-0.046-0.416-0.13-0.499c-0.082-0.083-0.238-0.125-0.465-0.125h-0.799v1.535h-0.8v-3.915h1.872
						C105.099,67.765,105.305,67.798,105.448,67.861z M103.759,68.44v1.052h0.88c0.175,0,0.306-0.021,0.394-0.064
						c0.154-0.074,0.232-0.221,0.232-0.44c0-0.237-0.076-0.396-0.225-0.479c-0.084-0.046-0.211-0.068-0.379-0.068H103.759z"/>
					<path fill="#FFFFFF" d="M111.008,69.98c-0.229,0.191-0.557,0.287-0.981,0.287h-0.815v1.407h-0.812v-3.915h1.681
						c0.388,0,0.696,0.102,0.927,0.303c0.23,0.202,0.346,0.515,0.346,0.938C111.352,69.462,111.238,69.789,111.008,69.98z
						 M110.384,68.57c-0.104-0.087-0.249-0.13-0.436-0.13h-0.737v1.152h0.737c0.187,0,0.332-0.047,0.436-0.141
						s0.154-0.243,0.154-0.446C110.538,68.801,110.488,68.657,110.384,68.57z"/>
					<path fill="#FFFFFF" d="M114.605,67.759h1.177v3.915h-0.763v-2.647c0-0.076,0.002-0.184,0.004-0.32
						c0.001-0.138,0.002-0.243,0.002-0.317l-0.742,3.285h-0.795l-0.736-3.285c0,0.074,0.001,0.18,0.003,0.317
						c0.001,0.137,0.003,0.244,0.003,0.32v2.647h-0.763v-3.915h1.19l0.713,3.078L114.605,67.759z"/>
				</g>
				<g>
					<rect x="23.705" y="66.788" fill="#FFFFFF" width="1.079" height="4.944"/>
					<rect x="22.18" y="67.68" fill="#FFFFFF" width="1.079" height="4.053"/>
					<rect x="20.653" y="68.571" fill="#FFFFFF" width="1.08" height="3.161"/>
					<rect x="19.128" y="69.462" fill="#FFFFFF" width="1.08" height="2.271"/>
				</g>
				<g>
					<g>
						<path fill="#FFFFFF" d="M184.907,67.709v4.037h-7.979v-4.037H184.907 M185.179,67.437h-0.271h-7.979h-0.271v0.272v4.037v0.272
							h0.271h7.979h0.271v-0.272v-4.037V67.437L185.179,67.437z"/>
					</g>
					<rect x="184.907" y="68.547" fill="#FFFFFF" width="0.736" height="2.362"/>
					<rect x="177.265" y="68.044" fill="#FFFFFF" width="2.9" height="3.367"/>
				</g>
				<rect x="19.274" y="75.245" fill="#FFFFFF" width="166.517" height="26.377"/>
				<g>
					<rect x="25.934" y="82.483" fill="#E93E3C" width="15.41" height="1.902"/>
					<rect x="25.934" y="86.764" fill="#E93E3C" width="15.41" height="1.903"/>
					<rect x="25.934" y="91.044" fill="#E93E3C" width="15.41" height="1.903"/>
				</g>
				<g>
					<g>
						<rect x="97.724" y="81" fill="#E93E3C" width="4.272" height="14.247"/>
						<rect x="103.422" y="81" fill="#E93E3C" width="4.274" height="4.274"/>
						<rect x="103.422" y="90.973" fill="#E93E3C" width="4.274" height="4.274"/>
						<rect x="90.601" y="90.973" fill="#E93E3C" width="4.273" height="4.274"/>
						<rect x="113.396" y="81" fill="#E93E3C" width="4.274" height="4.274"/>
						<rect x="113.396" y="90.973" fill="#E93E3C" width="4.274" height="4.274"/>
						<rect x="87.751" y="81" fill="#E93E3C" width="4.272" height="14.247"/>
						<polygon fill="#BD2827" points="103.422,85.274 106.271,88.124 103.422,90.973 107.697,90.973 110.546,88.124 107.697,85.274 
													"/>
						<polyline fill="#BD2827" points="94.874,95.247 97.724,92.398 97.724,88.124 94.874,90.973 						"/>
						<polygon fill="#BD2827" points="117.67,90.973 114.82,88.124 117.67,85.274 113.396,85.274 110.546,88.124 113.396,90.973 
													"/>
						<polygon fill="#E93E3C" points="89.175,81 86.325,81 87.751,82.425 89.175,82.425 						"/>
						<polygon fill="#E93E3C" points="116.243,95.247 119.095,95.247 117.67,93.822 116.243,93.822 						"/>
					</g>
				</g>
				<path fill="#E93E3C" d="M175.789,90.082h1.523v2.285c0,0.421-0.341,0.762-0.762,0.762h-9.143c-0.422,0-0.763-0.341-0.763-0.762
					v-7.618c0-0.421,0.341-0.763,0.763-0.763h3.047v1.524h-2.285v6.094h7.618L175.789,90.082L175.789,90.082z M178.726,85.622
					l-3.048-3.047c-0.073-0.073-0.17-0.111-0.27-0.111c-0.051,0-0.1,0.009-0.146,0.029c-0.142,0.058-0.234,0.197-0.234,0.351v1.524
					c-2.524,0-4.571,2.387-4.571,5.332c0.763-0.888,2.047-2.285,4.571-2.285v1.523c0,0.154,0.094,0.293,0.234,0.352
					c0.047,0.021,0.096,0.029,0.146,0.029c0.1,0,0.195-0.038,0.27-0.111l3.048-3.048C178.874,86.012,178.874,85.771,178.726,85.622z
					"/>
			</g>
			<rect x="19.421" y="101.202" fill="#F3F3F3" width="166.516" height="198.344"/>
			<path fill="#55889B" d="M48.194,112.924l-6.722-6.722v3.609H36.99c-8.858,0-12.074,7.221-12.074,12.075v8.962h6.225v-8.938
				c0-0.018,0.037-1.703,0.865-3.256c0.951-1.787,2.536-2.619,4.984-2.619h4.481v3.609L48.194,112.924z"/>
			<path fill="#55889B" d="M48.194,149.276l-6.722-6.722v3.609H36.99c-8.858,0-12.074,7.221-12.074,12.075v8.963h6.225v-8.939
				c0-0.018,0.037-1.702,0.865-3.256c0.951-1.787,2.536-2.619,4.984-2.619h4.481v3.609L48.194,149.276z"/>
			<g enable-background="new    ">
				<path fill="#333333" d="M68.111,122.476h-0.1c-0.1,0-0.55-0.079-0.55-0.56c-0.33,0.39-0.899,0.62-1.529,0.62
					c-0.77,0-1.679-0.52-1.679-1.6c0-1.129,0.91-1.559,1.679-1.559c0.64,0,1.209,0.21,1.529,0.59v-0.65
					c0-0.489-0.419-0.81-1.059-0.81c-0.38,0-0.75,0.09-1.08,0.311c-0.07,0.04-0.15,0.069-0.23,0.069
					c-0.229,0-0.479-0.189-0.479-0.489c0-0.09,0.03-0.18,0.07-0.25c0.3-0.479,1.379-0.68,1.939-0.68c1.1,0,2.109,0.439,2.109,1.829
					v2.549C68.73,122.197,68.45,122.476,68.111,122.476z M67.461,120.658c-0.209-0.28-0.609-0.42-1.019-0.42
					c-0.5,0-0.91,0.26-0.91,0.729c0,0.45,0.41,0.71,0.91,0.71c0.41,0,0.81-0.141,1.019-0.42V120.658z"/>
				<path fill="#333333" d="M73.182,122.476c-0.35,0-0.629-0.279-0.629-0.629v-5.537c0-0.34,0.28-0.62,0.649-0.62
					c0.34,0,0.62,0.28,0.62,0.62v5.537C73.822,122.197,73.542,122.476,73.182,122.476z"/>
				<path fill="#333333" d="M76.472,116.31c0,0.42-0.34,0.76-0.76,0.76c-0.41,0-0.76-0.34-0.76-0.76s0.35-0.75,0.76-0.75
					C76.132,115.56,76.472,115.89,76.472,116.31z M75.712,122.476c-0.35,0-0.629-0.279-0.629-0.629v-3.698
					c0-0.34,0.28-0.62,0.649-0.62c0.34,0,0.62,0.28,0.62,0.62v3.698C76.352,122.197,76.072,122.476,75.712,122.476z"/>
				<path fill="#333333" d="M79.231,122.537c-0.889,0-1.369-0.46-1.369-1.319v-2.519h-0.31c-0.3,0-0.55-0.25-0.55-0.57
					c0-0.289,0.25-0.539,0.55-0.539h0.31v-0.75c0-0.35,0.28-0.63,0.65-0.63c0.35,0,0.629,0.28,0.629,0.63v0.75h0.5
					c0.29,0,0.54,0.25,0.54,0.56c0,0.3-0.25,0.55-0.54,0.55h-0.5v2.179c0,0.38,0.24,0.529,0.44,0.529c0.03,0,0.08,0,0.11,0
					c0.36,0,0.56,0.24,0.56,0.55C80.251,122.277,80.061,122.537,79.231,122.537z"/>
				<path fill="#333333" d="M82.611,122.537c-0.889,0-1.369-0.46-1.369-1.319v-2.519h-0.31c-0.3,0-0.55-0.25-0.55-0.57
					c0-0.289,0.25-0.539,0.55-0.539h0.31v-0.75c0-0.35,0.28-0.63,0.65-0.63c0.35,0,0.629,0.28,0.629,0.63v0.75h0.5
					c0.29,0,0.54,0.25,0.54,0.56c0,0.3-0.25,0.55-0.54,0.55h-0.5v2.179c0,0.38,0.24,0.529,0.44,0.529c0.03,0,0.08,0,0.11,0
					c0.36,0,0.56,0.24,0.56,0.55C83.631,122.277,83.441,122.537,82.611,122.537z"/>
				<path fill="#333333" d="M85.002,122.476c-0.35,0-0.629-0.279-0.629-0.629v-5.537c0-0.34,0.28-0.62,0.649-0.62
					c0.34,0,0.62,0.28,0.62,0.62v5.537C85.641,122.197,85.362,122.476,85.002,122.476z"/>
				<path fill="#333333" d="M90.9,120.408h-2.979c0.08,0.609,0.57,1.119,1.389,1.119c0.27,0,0.64-0.08,0.94-0.239
					c0.08-0.04,0.17-0.061,0.25-0.061c0.27,0,0.54,0.21,0.54,0.51c0,0.569-1.229,0.8-1.869,0.8c-1.469,0-2.579-0.989-2.579-2.539
					c0-1.399,1.029-2.528,2.499-2.528c1.089,0,1.919,0.63,2.259,1.629c0.07,0.22,0.14,0.49,0.14,0.729
					C91.49,120.138,91.23,120.408,90.9,120.408z M89.091,118.479c-0.79,0-1.129,0.589-1.189,1.069h2.379
					C90.251,119.088,89.931,118.479,89.091,118.479z"/>
				<path fill="#333333" d="M96.611,122.537c-0.889,0-1.369-0.46-1.369-1.319v-2.519h-0.31c-0.3,0-0.55-0.25-0.55-0.57
					c0-0.289,0.25-0.539,0.55-0.539h0.31v-0.75c0-0.35,0.28-0.63,0.65-0.63c0.35,0,0.629,0.28,0.629,0.63v0.75h0.5
					c0.29,0,0.54,0.25,0.54,0.56c0,0.3-0.25,0.55-0.54,0.55h-0.5v2.179c0,0.38,0.24,0.529,0.44,0.529c0.03,0,0.08,0,0.11,0
					c0.36,0,0.56,0.24,0.56,0.55C97.631,122.277,97.441,122.537,96.611,122.537z"/>
				<path fill="#333333" d="M100.611,122.537c-1.589,0-2.549-1.159-2.549-2.539c0-1.369,0.959-2.528,2.549-2.528
					c1.599,0,2.558,1.159,2.558,2.528C103.169,121.377,102.21,122.537,100.611,122.537z M100.611,118.598
					c-0.79,0-1.229,0.65-1.229,1.399c0,0.76,0.44,1.409,1.229,1.409s1.24-0.649,1.24-1.409
					C101.851,119.249,101.401,118.598,100.611,118.598z"/>
				<path fill="#333333" d="M108.29,122.537c-0.889,0-1.369-0.46-1.369-1.319v-2.519h-0.309c-0.301,0-0.551-0.25-0.551-0.57
					c0-0.289,0.25-0.539,0.551-0.539h0.309v-0.75c0-0.35,0.28-0.63,0.65-0.63c0.35,0,0.629,0.28,0.629,0.63v0.75h0.5
					c0.29,0,0.54,0.25,0.54,0.56c0,0.3-0.25,0.55-0.54,0.55h-0.5v2.179c0,0.38,0.24,0.529,0.44,0.529c0.03,0,0.08,0,0.11,0
					c0.359,0,0.559,0.24,0.559,0.55C109.31,122.277,109.12,122.537,108.29,122.537z"/>
				<path fill="#333333" d="M113.949,122.476c-0.35,0-0.63-0.279-0.63-0.629v-2.369c0-0.67-0.35-0.88-0.898-0.88
					c-0.49,0-0.881,0.28-1.1,0.57v2.679c0,0.35-0.28,0.629-0.641,0.629c-0.35,0-0.629-0.279-0.629-0.629v-5.537
					c0-0.34,0.279-0.62,0.649-0.62c0.34,0,0.62,0.28,0.62,0.62v1.909c0.31-0.37,0.909-0.75,1.699-0.75
					c1.059,0,1.568,0.58,1.568,1.52v2.858C114.589,122.197,114.31,122.476,113.949,122.476z"/>
				<path fill="#333333" d="M119.849,120.408h-2.979c0.08,0.609,0.57,1.119,1.39,1.119c0.271,0,0.64-0.08,0.94-0.239
					c0.079-0.04,0.17-0.061,0.249-0.061c0.271,0,0.54,0.21,0.54,0.51c0,0.569-1.229,0.8-1.869,0.8c-1.469,0-2.578-0.989-2.578-2.539
					c0-1.399,1.029-2.528,2.498-2.528c1.09,0,1.919,0.63,2.259,1.629c0.069,0.22,0.14,0.49,0.14,0.729
					C120.439,120.138,120.179,120.408,119.849,120.408z M118.04,118.479c-0.789,0-1.129,0.589-1.189,1.069h2.379
					C119.2,119.088,118.88,118.479,118.04,118.479z"/>
				<path fill="#333333" d="M126.2,118.718c-0.391,0.05-0.76,0.21-0.99,0.51v2.619c0,0.35-0.279,0.629-0.619,0.629h-0.02
					c-0.35,0-0.63-0.279-0.63-0.629v-3.698c0-0.34,0.28-0.62,0.649-0.62c0.34,0,0.619,0.28,0.619,0.62v0.1
					c0.24-0.319,0.561-0.699,1.04-0.699c0.37,0,0.56,0.229,0.56,0.52C126.81,118.449,126.55,118.668,126.2,118.718z"/>
				<path fill="#333333" d="M128.931,116.31c0,0.42-0.34,0.76-0.76,0.76c-0.41,0-0.76-0.34-0.76-0.76s0.35-0.75,0.76-0.75
					C128.591,115.56,128.931,115.89,128.931,116.31z M128.171,122.476c-0.35,0-0.629-0.279-0.629-0.629v-3.698
					c0-0.34,0.279-0.62,0.648-0.62c0.34,0,0.62,0.28,0.62,0.62v3.698C128.811,122.197,128.531,122.476,128.171,122.476z"/>
				<path fill="#333333" d="M132.05,124.375c-0.59,0-1.579-0.15-1.869-0.6c-0.05-0.08-0.08-0.18-0.08-0.28
					c0-0.31,0.25-0.529,0.53-0.529c0.09,0,0.18,0.02,0.27,0.07c0.34,0.209,0.72,0.3,1.149,0.3c0.609,0,1.33-0.271,1.33-1.22v-0.49
					c-0.381,0.48-0.9,0.76-1.49,0.76c-1.209,0-2.129-0.85-2.129-2.458c0-1.579,0.91-2.459,2.129-2.459c0.58,0,1.1,0.25,1.49,0.739
					v-0.05c0-0.35,0.279-0.63,0.648-0.63c0.351,0,0.631,0.28,0.631,0.63v3.928C134.659,123.925,133.24,124.375,132.05,124.375z
					 M133.38,119.148c-0.211-0.319-0.67-0.55-1.09-0.55c-0.72,0-1.22,0.5-1.22,1.33c0,0.829,0.5,1.329,1.22,1.329
					c0.42,0,0.879-0.24,1.09-0.55V119.148z"/>
				<path fill="#333333" d="M139.82,122.476c-0.35,0-0.63-0.279-0.63-0.629v-2.369c0-0.67-0.351-0.88-0.899-0.88
					c-0.49,0-0.88,0.28-1.1,0.57v2.679c0,0.35-0.279,0.629-0.64,0.629c-0.35,0-0.63-0.279-0.63-0.629v-5.537
					c0-0.34,0.28-0.62,0.65-0.62c0.34,0,0.619,0.28,0.619,0.62v1.909c0.311-0.37,0.91-0.75,1.699-0.75
					c1.059,0,1.568,0.58,1.568,1.52v2.858C140.458,122.197,140.179,122.476,139.82,122.476z"/>
				<path fill="#333333" d="M143.34,122.537c-0.89,0-1.369-0.46-1.369-1.319v-2.519h-0.31c-0.3,0-0.55-0.25-0.55-0.57
					c0-0.289,0.25-0.539,0.55-0.539h0.31v-0.75c0-0.35,0.28-0.63,0.649-0.63c0.35,0,0.63,0.28,0.63,0.63v0.75h0.5
					c0.29,0,0.54,0.25,0.54,0.56c0,0.3-0.25,0.55-0.54,0.55h-0.5v2.179c0,0.38,0.24,0.529,0.44,0.529c0.029,0,0.08,0,0.109,0
					c0.359,0,0.56,0.24,0.56,0.55C144.36,122.277,144.169,122.537,143.34,122.537z"/>
			</g>
			<g>
				<rect x="19.421" y="135.849" fill="#FFFFFF" width="166.516" height="1"/>
				<rect x="19.421" y="136.849" fill="#E6E6E5" width="166.516" height="1"/>
			</g>
			<g enable-background="new    ">
				<path fill="#333333" d="M68.45,159.123c-0.35,0-0.63-0.279-0.63-0.629v-2.349c0-0.67-0.35-0.9-0.889-0.9
					c-0.5,0-0.89,0.28-1.1,0.57v2.679c0,0.35-0.28,0.629-0.64,0.629c-0.35,0-0.629-0.279-0.629-0.629v-3.698
					c0-0.34,0.28-0.62,0.649-0.62c0.34,0,0.62,0.28,0.62,0.62v0.07c0.31-0.37,0.899-0.75,1.689-0.75c1.06,0,1.569,0.6,1.569,1.539
					v2.839C69.09,158.843,68.81,159.123,68.45,159.123z"/>
				<path fill="#333333" d="M72.592,159.183c-1.589,0-2.549-1.159-2.549-2.539c0-1.369,0.959-2.528,2.549-2.528
					c1.599,0,2.559,1.159,2.559,2.528C75.15,158.024,74.191,159.183,72.592,159.183z M72.592,155.245
					c-0.79,0-1.229,0.65-1.229,1.399c0,0.76,0.44,1.409,1.229,1.409s1.239-0.649,1.239-1.409
					C73.831,155.895,73.381,155.245,72.592,155.245z"/>
				<path fill="#333333" d="M76.762,160.262c-0.07,0.07-0.16,0.1-0.26,0.1c-0.17,0-0.38-0.119-0.38-0.319c0-0.08,0.03-0.16,0.1-0.22
					c0.26-0.21,0.48-0.52,0.54-0.779c-0.03,0.01-0.12,0.029-0.19,0.029c-0.38,0-0.68-0.29-0.68-0.72c0-0.439,0.36-0.799,0.78-0.799
					c0.47,0,0.899,0.369,0.899,1.02C77.572,159.213,77.261,159.813,76.762,160.262z"/>
				<path fill="#333333" d="M87.789,159.123c-0.35,0-0.63-0.279-0.63-0.629v-2.479c0-0.45-0.2-0.771-0.719-0.771
					c-0.45,0-0.82,0.301-1,0.561v2.688c0,0.35-0.28,0.629-0.65,0.629c-0.35,0-0.629-0.279-0.629-0.629v-2.479
					c0-0.45-0.2-0.771-0.72-0.771c-0.44,0-0.81,0.301-1,0.57v2.679c0,0.35-0.28,0.629-0.64,0.629c-0.35,0-0.629-0.279-0.629-0.629
					v-3.698c0-0.34,0.28-0.62,0.649-0.62c0.34,0,0.62,0.28,0.62,0.62v0.07c0.2-0.29,0.839-0.75,1.579-0.75
					c0.709,0,1.159,0.33,1.339,0.88c0.28-0.44,0.919-0.88,1.659-0.88c0.889,0,1.419,0.47,1.419,1.459v2.919
					C88.438,158.843,88.158,159.123,87.789,159.123z"/>
				<path fill="#333333" d="M93.93,155.025l-1.949,4.828c-0.34,0.839-0.95,1.169-1.659,1.169c-0.44,0-0.78-0.22-0.78-0.569
					c0-0.3,0.24-0.561,0.6-0.561c0.05,0,0.11,0,0.16-0.01c0.21-0.04,0.39-0.14,0.48-0.34l0.18-0.409l-1.649-4.118
					c-0.03-0.07-0.04-0.14-0.04-0.21c0-0.31,0.25-0.63,0.64-0.63c0.25,0,0.49,0.16,0.59,0.42l1.119,2.999l1.119-2.999
					c0.09-0.25,0.34-0.42,0.61-0.42c0.38,0,0.62,0.311,0.62,0.62C93.97,154.875,93.96,154.956,93.93,155.025z"/>
				<path fill="#333333" d="M99.64,155.365c-0.39,0.05-0.759,0.21-0.989,0.51v2.619c0,0.35-0.28,0.629-0.62,0.629h-0.02
					c-0.35,0-0.629-0.279-0.629-0.629v-3.698c0-0.34,0.28-0.62,0.649-0.62c0.34,0,0.62,0.28,0.62,0.62v0.1
					c0.24-0.319,0.56-0.699,1.04-0.699c0.37,0,0.56,0.229,0.56,0.52C100.25,155.095,99.99,155.315,99.64,155.365z"/>
				<path fill="#333333" d="M102.371,152.957c0,0.42-0.34,0.76-0.76,0.76c-0.41,0-0.76-0.34-0.76-0.76s0.35-0.75,0.76-0.75
					C102.031,152.207,102.371,152.537,102.371,152.957z M101.612,159.123c-0.35,0-0.629-0.279-0.629-0.629v-3.698
					c0-0.34,0.28-0.62,0.649-0.62c0.34,0,0.62,0.28,0.62,0.62v3.698C102.251,158.843,101.972,159.123,101.612,159.123z"/>
				<path fill="#333333" d="M105.49,161.022c-0.589,0-1.579-0.15-1.868-0.6c-0.051-0.08-0.08-0.18-0.08-0.28
					c0-0.31,0.25-0.529,0.529-0.529c0.09,0,0.18,0.02,0.27,0.07c0.34,0.209,0.72,0.3,1.149,0.3c0.61,0,1.329-0.271,1.329-1.22v-0.49
					c-0.379,0.48-0.899,0.76-1.488,0.76c-1.21,0-2.129-0.85-2.129-2.458c0-1.579,0.909-2.459,2.129-2.459
					c0.579,0,1.099,0.25,1.488,0.739v-0.05c0-0.35,0.28-0.63,0.65-0.63c0.35,0,0.629,0.28,0.629,0.63v3.928
					C108.099,160.572,106.68,161.022,105.49,161.022z M106.82,155.794c-0.209-0.319-0.67-0.55-1.089-0.55
					c-0.72,0-1.22,0.5-1.22,1.33c0,0.829,0.5,1.329,1.22,1.329c0.419,0,0.88-0.24,1.089-0.55V155.794z"/>
				<path fill="#333333" d="M113.259,159.123c-0.35,0-0.629-0.279-0.629-0.629v-2.369c0-0.67-0.35-0.88-0.899-0.88
					c-0.489,0-0.88,0.28-1.1,0.57v2.679c0,0.35-0.28,0.629-0.64,0.629c-0.35,0-0.629-0.279-0.629-0.629v-5.537
					c0-0.34,0.279-0.62,0.648-0.62c0.34,0,0.62,0.28,0.62,0.62v1.909c0.31-0.37,0.909-0.75,1.699-0.75c1.06,0,1.569,0.58,1.569,1.52
					v2.858C113.9,158.843,113.619,159.123,113.259,159.123z"/>
				<path fill="#333333" d="M116.781,159.183c-0.889,0-1.369-0.46-1.369-1.319v-2.519h-0.31c-0.3,0-0.55-0.25-0.55-0.57
					c0-0.289,0.25-0.539,0.55-0.539h0.31v-0.75c0-0.35,0.279-0.63,0.65-0.63c0.35,0,0.629,0.28,0.629,0.63v0.75h0.5
					c0.289,0,0.539,0.25,0.539,0.56c0,0.3-0.25,0.55-0.539,0.55h-0.5v2.179c0,0.38,0.24,0.529,0.439,0.529c0.03,0,0.08,0,0.11,0
					c0.36,0,0.56,0.24,0.56,0.55C117.8,158.923,117.611,159.183,116.781,159.183z"/>
			</g>
			<path fill="#55889B" d="M24.917,223.992l6.722-6.723v3.609h4.482c8.857,0,12.073,7.221,12.073,12.074v8.963H41.97v-8.938
				c0-0.019-0.037-1.703-0.865-3.256c-0.951-1.787-2.536-2.619-4.983-2.619h-4.482v3.608L24.917,223.992z"/>
			<g enable-background="new    ">
				<path fill="#333333" d="M68.111,233.543h-0.1c-0.1,0-0.55-0.079-0.55-0.56c-0.33,0.39-0.899,0.62-1.529,0.62
					c-0.77,0-1.679-0.52-1.679-1.6c0-1.129,0.91-1.559,1.679-1.559c0.64,0,1.209,0.21,1.529,0.59v-0.65
					c0-0.489-0.419-0.81-1.059-0.81c-0.38,0-0.75,0.09-1.08,0.311c-0.07,0.04-0.15,0.069-0.23,0.069
					c-0.229,0-0.479-0.189-0.479-0.489c0-0.09,0.03-0.18,0.07-0.25c0.3-0.479,1.379-0.68,1.939-0.68c1.1,0,2.109,0.439,2.109,1.829
					v2.549C68.73,233.264,68.45,233.543,68.111,233.543z M67.461,231.725c-0.209-0.28-0.609-0.42-1.019-0.42
					c-0.5,0-0.91,0.26-0.91,0.729c0,0.45,0.41,0.71,0.91,0.71c0.41,0,0.81-0.141,1.019-0.42V231.725z"/>
				<path fill="#333333" d="M73.182,233.543c-0.35,0-0.629-0.279-0.629-0.629v-5.537c0-0.34,0.28-0.62,0.649-0.62
					c0.34,0,0.62,0.28,0.62,0.62v5.537C73.822,233.264,73.542,233.543,73.182,233.543z"/>
				<path fill="#333333" d="M76.472,227.377c0,0.42-0.34,0.76-0.76,0.76c-0.41,0-0.76-0.34-0.76-0.76s0.35-0.75,0.76-0.75
					C76.132,226.627,76.472,226.958,76.472,227.377z M75.712,233.543c-0.35,0-0.629-0.279-0.629-0.629v-3.698
					c0-0.34,0.28-0.62,0.649-0.62c0.34,0,0.62,0.28,0.62,0.62v3.698C76.352,233.264,76.072,233.543,75.712,233.543z"/>
				<path fill="#333333" d="M79.231,233.604c-0.889,0-1.369-0.46-1.369-1.319v-2.519h-0.31c-0.3,0-0.55-0.25-0.55-0.57
					c0-0.289,0.25-0.539,0.55-0.539h0.31v-0.75c0-0.35,0.28-0.63,0.65-0.63c0.35,0,0.629,0.28,0.629,0.63v0.75h0.5
					c0.29,0,0.54,0.25,0.54,0.56c0,0.3-0.25,0.55-0.54,0.55h-0.5v2.179c0,0.38,0.24,0.529,0.44,0.529c0.03,0,0.08,0,0.11,0
					c0.36,0,0.56,0.24,0.56,0.55C80.251,233.344,80.061,233.604,79.231,233.604z"/>
				<path fill="#333333" d="M82.611,233.604c-0.889,0-1.369-0.46-1.369-1.319v-2.519h-0.31c-0.3,0-0.55-0.25-0.55-0.57
					c0-0.289,0.25-0.539,0.55-0.539h0.31v-0.75c0-0.35,0.28-0.63,0.65-0.63c0.35,0,0.629,0.28,0.629,0.63v0.75h0.5
					c0.29,0,0.54,0.25,0.54,0.56c0,0.3-0.25,0.55-0.54,0.55h-0.5v2.179c0,0.38,0.24,0.529,0.44,0.529c0.03,0,0.08,0,0.11,0
					c0.36,0,0.56,0.24,0.56,0.55C83.631,233.344,83.441,233.604,82.611,233.604z"/>
				<path fill="#333333" d="M85.002,233.543c-0.35,0-0.629-0.279-0.629-0.629v-5.537c0-0.34,0.28-0.62,0.649-0.62
					c0.34,0,0.62,0.28,0.62,0.62v5.537C85.641,233.264,85.362,233.543,85.002,233.543z"/>
				<path fill="#333333" d="M90.9,231.475h-2.979c0.08,0.609,0.57,1.119,1.389,1.119c0.27,0,0.64-0.08,0.94-0.239
					c0.08-0.04,0.17-0.061,0.25-0.061c0.27,0,0.54,0.21,0.54,0.51c0,0.569-1.229,0.8-1.869,0.8c-1.469,0-2.579-0.989-2.579-2.539
					c0-1.399,1.029-2.528,2.499-2.528c1.089,0,1.919,0.63,2.259,1.629c0.07,0.22,0.14,0.49,0.14,0.729
					C91.49,231.206,91.23,231.475,90.9,231.475z M89.091,229.546c-0.79,0-1.129,0.589-1.189,1.069h2.379
					C90.251,230.156,89.931,229.546,89.091,229.546z"/>
				<path fill="#333333" d="M96.611,233.604c-0.889,0-1.369-0.46-1.369-1.319v-2.519h-0.31c-0.3,0-0.55-0.25-0.55-0.57
					c0-0.289,0.25-0.539,0.55-0.539h0.31v-0.75c0-0.35,0.28-0.63,0.65-0.63c0.35,0,0.629,0.28,0.629,0.63v0.75h0.5
					c0.29,0,0.54,0.25,0.54,0.56c0,0.3-0.25,0.55-0.54,0.55h-0.5v2.179c0,0.38,0.24,0.529,0.44,0.529c0.03,0,0.08,0,0.11,0
					c0.36,0,0.56,0.24,0.56,0.55C97.631,233.344,97.441,233.604,96.611,233.604z"/>
				<path fill="#333333" d="M100.611,233.604c-1.589,0-2.549-1.159-2.549-2.539c0-1.369,0.959-2.528,2.549-2.528
					c1.599,0,2.558,1.159,2.558,2.528C103.169,232.445,102.21,233.604,100.611,233.604z M100.611,229.666
					c-0.79,0-1.229,0.65-1.229,1.399c0,0.76,0.44,1.409,1.229,1.409s1.24-0.649,1.24-1.409
					C101.851,230.316,101.401,229.666,100.611,229.666z"/>
				<path fill="#333333" d="M108.29,233.604c-0.889,0-1.369-0.46-1.369-1.319v-2.519h-0.309c-0.301,0-0.551-0.25-0.551-0.57
					c0-0.289,0.25-0.539,0.551-0.539h0.309v-0.75c0-0.35,0.28-0.63,0.65-0.63c0.35,0,0.629,0.28,0.629,0.63v0.75h0.5
					c0.29,0,0.54,0.25,0.54,0.56c0,0.3-0.25,0.55-0.54,0.55h-0.5v2.179c0,0.38,0.24,0.529,0.44,0.529c0.03,0,0.08,0,0.11,0
					c0.359,0,0.559,0.24,0.559,0.55C109.31,233.344,109.12,233.604,108.29,233.604z"/>
				<path fill="#333333" d="M113.949,233.543c-0.35,0-0.63-0.279-0.63-0.629v-2.369c0-0.67-0.35-0.88-0.898-0.88
					c-0.49,0-0.881,0.28-1.1,0.57v2.679c0,0.35-0.28,0.629-0.641,0.629c-0.35,0-0.629-0.279-0.629-0.629v-5.537
					c0-0.34,0.279-0.62,0.649-0.62c0.34,0,0.62,0.28,0.62,0.62v1.909c0.31-0.37,0.909-0.75,1.699-0.75
					c1.059,0,1.568,0.58,1.568,1.52v2.858C114.589,233.264,114.31,233.543,113.949,233.543z"/>
				<path fill="#333333" d="M119.849,231.475h-2.979c0.08,0.609,0.57,1.119,1.39,1.119c0.271,0,0.64-0.08,0.94-0.239
					c0.079-0.04,0.17-0.061,0.249-0.061c0.271,0,0.54,0.21,0.54,0.51c0,0.569-1.229,0.8-1.869,0.8c-1.469,0-2.578-0.989-2.578-2.539
					c0-1.399,1.029-2.528,2.498-2.528c1.09,0,1.919,0.63,2.259,1.629c0.069,0.22,0.14,0.49,0.14,0.729
					C120.439,231.206,120.179,231.475,119.849,231.475z M118.04,229.546c-0.789,0-1.129,0.589-1.189,1.069h2.379
					C119.2,230.156,118.88,229.546,118.04,229.546z"/>
				<path fill="#333333" d="M124.572,233.543c-0.35,0-0.63-0.279-0.63-0.629v-5.537c0-0.34,0.28-0.62,0.649-0.62
					c0.34,0,0.619,0.28,0.619,0.62v5.537C125.21,233.264,124.931,233.543,124.572,233.543z"/>
				<path fill="#333333" d="M130.47,231.475h-2.979c0.08,0.609,0.569,1.119,1.389,1.119c0.27,0,0.64-0.08,0.939-0.239
					c0.08-0.04,0.17-0.061,0.25-0.061c0.27,0,0.54,0.21,0.54,0.51c0,0.569-1.229,0.8-1.869,0.8c-1.47,0-2.579-0.989-2.579-2.539
					c0-1.399,1.029-2.528,2.499-2.528c1.089,0,1.919,0.63,2.259,1.629c0.07,0.22,0.141,0.49,0.141,0.729
					C131.06,231.206,130.799,231.475,130.47,231.475z M128.66,229.546c-0.79,0-1.13,0.589-1.189,1.069h2.379
					C129.82,230.156,129.5,229.546,128.66,229.546z"/>
				<path fill="#333333" d="M134.62,227.787c-0.15,0-0.24-0.069-0.46-0.069c-0.351,0-0.6,0.229-0.6,0.68v0.26h0.499
					c0.291,0,0.54,0.25,0.54,0.56c0,0.3-0.249,0.55-0.54,0.55h-0.499v3.148c0,0.35-0.28,0.629-0.649,0.629
					c-0.35,0-0.63-0.279-0.63-0.629v-3.148h-0.31c-0.301,0-0.551-0.25-0.551-0.57c0-0.289,0.25-0.539,0.551-0.539h0.31v-0.26
					c0-1.029,0.659-1.68,1.629-1.68c0.689,0,1.14,0.25,1.14,0.59C135.05,227.627,134.82,227.787,134.62,227.787z"/>
				<path fill="#333333" d="M136.89,233.604c-0.889,0-1.369-0.46-1.369-1.319v-2.519h-0.309c-0.301,0-0.551-0.25-0.551-0.57
					c0-0.289,0.25-0.539,0.551-0.539h0.309v-0.75c0-0.35,0.28-0.63,0.65-0.63c0.35,0,0.629,0.28,0.629,0.63v0.75h0.5
					c0.29,0,0.54,0.25,0.54,0.56c0,0.3-0.25,0.55-0.54,0.55h-0.5v2.179c0,0.38,0.24,0.529,0.44,0.529c0.03,0,0.08,0,0.11,0
					c0.359,0,0.559,0.24,0.559,0.55C137.909,233.344,137.72,233.604,136.89,233.604z"/>
			</g>
			<g enable-background="new    ">
				<path fill="#333333" d="M68.45,194.623c-0.35,0-0.63-0.279-0.63-0.629v-2.349c0-0.67-0.35-0.9-0.889-0.9
					c-0.5,0-0.89,0.28-1.1,0.57v2.679c0,0.35-0.28,0.629-0.64,0.629c-0.35,0-0.629-0.279-0.629-0.629v-3.698
					c0-0.34,0.28-0.62,0.649-0.62c0.34,0,0.62,0.28,0.62,0.62v0.07c0.31-0.37,0.899-0.75,1.689-0.75c1.06,0,1.569,0.6,1.569,1.539
					v2.839C69.09,194.343,68.81,194.623,68.45,194.623z"/>
				<path fill="#333333" d="M72.592,194.683c-1.589,0-2.549-1.159-2.549-2.539c0-1.369,0.959-2.528,2.549-2.528
					c1.599,0,2.559,1.159,2.559,2.528C75.15,193.524,74.191,194.683,72.592,194.683z M72.592,190.745
					c-0.79,0-1.229,0.65-1.229,1.399c0,0.76,0.44,1.409,1.229,1.409s1.239-0.649,1.239-1.409
					C73.831,191.395,73.381,190.745,72.592,190.745z"/>
				<path fill="#333333" d="M82.928,190.465l-1.079,3.538c-0.11,0.359-0.46,0.619-0.83,0.619H81c-0.39,0-0.73-0.249-0.84-0.619
					l-0.85-2.729l-0.849,2.729c-0.11,0.359-0.46,0.619-0.84,0.619h-0.02c-0.379,0-0.729-0.26-0.839-0.619l-1.08-3.538
					c-0.02-0.061-0.03-0.12-0.03-0.18c0-0.311,0.26-0.61,0.64-0.61c0.27,0,0.53,0.181,0.6,0.45l0.79,2.858l0.91-2.799
					c0.1-0.3,0.39-0.51,0.729-0.51c0.31,0,0.6,0.21,0.7,0.51l0.909,2.799l0.79-2.858c0.07-0.27,0.33-0.45,0.61-0.45
					c0.37,0,0.63,0.29,0.63,0.61C82.959,190.345,82.948,190.405,82.928,190.465z"/>
				<path fill="#333333" d="M90.29,194.623c-0.35,0-0.63-0.279-0.63-0.629v-0.051c-0.38,0.48-0.909,0.74-1.489,0.74
					c-1.219,0-2.139-0.92-2.139-2.528c0-1.58,0.91-2.539,2.139-2.539c0.57,0,1.109,0.25,1.489,0.739v-1.889
					c0-0.35,0.28-0.63,0.65-0.63c0.35,0,0.629,0.28,0.629,0.63v5.527C90.94,194.343,90.66,194.623,90.29,194.623z M89.66,191.294
					c-0.21-0.319-0.669-0.55-1.099-0.55c-0.72,0-1.22,0.57-1.22,1.41c0,0.829,0.5,1.398,1.22,1.398c0.43,0,0.889-0.229,1.099-0.55
					V191.294z"/>
				<path fill="#333333" d="M94.441,194.683c-1.589,0-2.549-1.159-2.549-2.539c0-1.369,0.959-2.528,2.549-2.528
					c1.599,0,2.559,1.159,2.559,2.528C97,193.524,96.04,194.683,94.441,194.683z M94.441,190.745c-0.79,0-1.229,0.65-1.229,1.399
					c0,0.76,0.44,1.409,1.229,1.409s1.239-0.649,1.239-1.409C95.68,191.395,95.231,190.745,94.441,190.745z"/>
				<path fill="#333333" d="M104.779,190.465l-1.079,3.538c-0.11,0.359-0.46,0.619-0.829,0.619h-0.021
					c-0.39,0-0.729-0.249-0.84-0.619l-0.85-2.729l-0.849,2.729c-0.11,0.359-0.46,0.619-0.84,0.619h-0.02
					c-0.38,0-0.729-0.26-0.839-0.619l-1.08-3.538c-0.02-0.061-0.03-0.12-0.03-0.18c0-0.311,0.26-0.61,0.64-0.61
					c0.27,0,0.53,0.181,0.6,0.45l0.79,2.858l0.91-2.799c0.1-0.3,0.39-0.51,0.729-0.51c0.31,0,0.6,0.21,0.7,0.51l0.909,2.799
					l0.79-2.858c0.07-0.27,0.33-0.45,0.609-0.45c0.369,0,0.63,0.29,0.63,0.61C104.809,190.345,104.798,190.405,104.779,190.465z"/>
				<path fill="#333333" d="M109.521,194.623c-0.351,0-0.631-0.279-0.631-0.629v-2.349c0-0.67-0.35-0.9-0.889-0.9
					c-0.5,0-0.89,0.28-1.1,0.57v2.679c0,0.35-0.279,0.629-0.64,0.629c-0.35,0-0.63-0.279-0.63-0.629v-3.698
					c0-0.34,0.28-0.62,0.65-0.62c0.34,0,0.619,0.28,0.619,0.62v0.07c0.311-0.37,0.899-0.75,1.689-0.75
					c1.059,0,1.568,0.6,1.568,1.539v2.839C110.159,194.343,109.88,194.623,109.521,194.623z"/>
				<path fill="#333333" d="M117.531,194.623h-0.101c-0.1,0-0.55-0.079-0.55-0.56c-0.33,0.39-0.899,0.62-1.529,0.62
					c-0.77,0-1.679-0.52-1.679-1.6c0-1.129,0.909-1.559,1.679-1.559c0.641,0,1.209,0.21,1.529,0.59v-0.65
					c0-0.489-0.42-0.81-1.059-0.81c-0.381,0-0.75,0.09-1.08,0.311c-0.07,0.04-0.15,0.069-0.23,0.069
					c-0.229,0-0.479-0.189-0.479-0.489c0-0.09,0.029-0.18,0.069-0.25c0.3-0.479,1.38-0.68,1.938-0.68c1.1,0,2.109,0.439,2.109,1.829
					v2.549C118.15,194.343,117.87,194.623,117.531,194.623z M116.88,192.804c-0.209-0.28-0.609-0.42-1.02-0.42
					c-0.5,0-0.909,0.26-0.909,0.729c0,0.45,0.409,0.71,0.909,0.71c0.41,0,0.811-0.141,1.02-0.42V192.804z"/>
				<path fill="#333333" d="M124.731,194.683c-0.579,0-1.109-0.26-1.489-0.74v0.051c0,0.35-0.279,0.629-0.64,0.629
					c-0.35,0-0.63-0.279-0.63-0.629v-5.537c0-0.34,0.28-0.62,0.65-0.62c0.34,0,0.619,0.28,0.619,0.62v1.898
					c0.38-0.489,0.92-0.739,1.489-0.739c1.229,0,2.139,0.959,2.139,2.539C126.869,193.763,125.95,194.683,124.731,194.683z
					 M124.331,190.745c-0.41,0-0.88,0.24-1.09,0.561v1.709c0.21,0.31,0.68,0.539,1.09,0.539c0.739,0,1.229-0.56,1.229-1.398
					C125.56,191.315,125.071,190.745,124.331,190.745z"/>
				<path fill="#333333" d="M129.222,188.457c0,0.42-0.34,0.76-0.76,0.76c-0.41,0-0.76-0.34-0.76-0.76s0.35-0.75,0.76-0.75
					C128.882,187.707,129.222,188.037,129.222,188.457z M128.462,194.623c-0.35,0-0.63-0.279-0.63-0.629v-3.698
					c0-0.34,0.28-0.62,0.649-0.62c0.34,0,0.619,0.28,0.619,0.62v3.698C129.101,194.343,128.822,194.623,128.462,194.623z"/>
				<path fill="#333333" d="M131.981,194.683c-0.89,0-1.369-0.46-1.369-1.319v-2.519h-0.31c-0.3,0-0.55-0.25-0.55-0.57
					c0-0.289,0.25-0.539,0.55-0.539h0.31v-0.75c0-0.35,0.28-0.63,0.649-0.63c0.35,0,0.63,0.28,0.63,0.63v0.75h0.5
					c0.29,0,0.54,0.25,0.54,0.56c0,0.3-0.25,0.55-0.54,0.55h-0.5v2.179c0,0.38,0.24,0.529,0.44,0.529c0.029,0,0.08,0,0.109,0
					c0.359,0,0.56,0.24,0.56,0.55C133,194.423,132.81,194.683,131.981,194.683z"/>
			</g>
			<g>
				<rect x="19.421" y="172.496" fill="#FFFFFF" width="166.516" height="1"/>
				<rect x="19.421" y="173.496" fill="#E6E6E5" width="166.516" height="1"/>
			</g>
			<g>
				<rect x="19.421" y="210.27" fill="#FFFFFF" width="166.516" height="1"/>
				<rect x="19.421" y="211.27" fill="#E6E6E5" width="166.516" height="1"/>
			</g>
			<g enable-background="new    ">
				<path fill="#333333" d="M71.399,264.886l-1.079,3.538c-0.11,0.359-0.46,0.619-0.83,0.619h-0.02c-0.39,0-0.73-0.249-0.84-0.619
					l-0.85-2.729l-0.849,2.729c-0.11,0.359-0.46,0.619-0.84,0.619h-0.02c-0.38,0-0.729-0.26-0.839-0.619l-1.08-3.538
					c-0.02-0.061-0.03-0.12-0.03-0.18c0-0.311,0.26-0.61,0.64-0.61c0.27,0,0.53,0.181,0.6,0.45l0.79,2.858l0.91-2.799
					c0.1-0.3,0.39-0.51,0.729-0.51c0.31,0,0.6,0.21,0.7,0.51l0.909,2.799l0.79-2.858c0.07-0.27,0.33-0.45,0.61-0.45
					c0.37,0,0.63,0.29,0.63,0.61C71.429,264.766,71.419,264.826,71.399,264.886z"/>
				<path fill="#333333" d="M76.25,266.975h-2.979c0.08,0.609,0.57,1.119,1.39,1.119c0.27,0,0.64-0.08,0.939-0.239
					c0.08-0.04,0.17-0.061,0.25-0.061c0.27,0,0.54,0.21,0.54,0.51c0,0.569-1.229,0.8-1.869,0.8c-1.469,0-2.579-0.989-2.579-2.539
					c0-1.399,1.029-2.528,2.499-2.528c1.089,0,1.919,0.63,2.259,1.629c0.07,0.22,0.14,0.49,0.14,0.729
					C76.84,266.706,76.58,266.975,76.25,266.975z M74.441,265.046c-0.79,0-1.129,0.589-1.189,1.069h2.379
					C75.601,265.656,75.281,265.046,74.441,265.046z"/>
				<path fill="#333333" d="M78.422,264.926c-0.07,0.069-0.17,0.1-0.27,0.1c-0.22,0-0.36-0.18-0.36-0.33
					c0-0.079,0.03-0.149,0.09-0.209c0.26-0.21,0.48-0.521,0.54-0.78c-0.03,0.01-0.12,0.03-0.19,0.03c-0.38,0-0.68-0.29-0.68-0.72
					c0-0.439,0.36-0.8,0.78-0.8c0.47,0,0.899,0.37,0.899,1.02C79.232,263.876,78.922,264.476,78.422,264.926z"/>
				<path fill="#333333" d="M82.521,265.286c-0.39,0.05-0.759,0.21-0.989,0.51v2.619c0,0.35-0.28,0.629-0.62,0.629h-0.02
					c-0.35,0-0.629-0.279-0.629-0.629v-3.698c0-0.34,0.28-0.62,0.649-0.62c0.34,0,0.62,0.28,0.62,0.62v0.1
					c0.24-0.319,0.56-0.699,1.04-0.699c0.37,0,0.56,0.229,0.56,0.52C83.131,265.016,82.871,265.236,82.521,265.286z"/>
				<path fill="#333333" d="M87.86,266.975h-2.979c0.08,0.609,0.57,1.119,1.389,1.119c0.27,0,0.64-0.08,0.94-0.239
					c0.08-0.04,0.17-0.061,0.25-0.061c0.27,0,0.54,0.21,0.54,0.51c0,0.569-1.229,0.8-1.869,0.8c-1.469,0-2.579-0.989-2.579-2.539
					c0-1.399,1.029-2.528,2.499-2.528c1.089,0,1.919,0.63,2.259,1.629c0.07,0.22,0.14,0.49,0.14,0.729
					C88.45,266.706,88.19,266.975,87.86,266.975z M86.051,265.046c-0.79,0-1.129,0.589-1.189,1.069h2.379
					C87.211,265.656,86.891,265.046,86.051,265.046z"/>
				<path fill="#333333" d="M93.571,269.104c-0.889,0-1.369-0.46-1.369-1.319v-2.519h-0.31c-0.3,0-0.55-0.25-0.55-0.57
					c0-0.289,0.25-0.539,0.55-0.539h0.31v-0.75c0-0.35,0.28-0.63,0.65-0.63c0.35,0,0.629,0.28,0.629,0.63v0.75h0.5
					c0.29,0,0.54,0.25,0.54,0.56c0,0.3-0.25,0.55-0.54,0.55h-0.5v2.179c0,0.38,0.24,0.529,0.44,0.529c0.03,0,0.08,0,0.11,0
					c0.36,0,0.56,0.24,0.56,0.55C94.591,268.844,94.401,269.104,93.571,269.104z"/>
				<path fill="#333333" d="M99.23,269.043c-0.35,0-0.629-0.279-0.629-0.629v-2.369c0-0.67-0.35-0.88-0.899-0.88
					c-0.49,0-0.88,0.28-1.1,0.57v2.679c0,0.35-0.28,0.629-0.64,0.629c-0.35,0-0.629-0.279-0.629-0.629v-5.537
					c0-0.34,0.28-0.62,0.649-0.62c0.34,0,0.62,0.28,0.62,0.62v1.909c0.31-0.37,0.91-0.75,1.699-0.75c1.059,0,1.569,0.58,1.569,1.52
					v2.858C99.869,268.764,99.59,269.043,99.23,269.043z"/>
				<path fill="#333333" d="M105.13,266.975h-2.979c0.08,0.609,0.569,1.119,1.389,1.119c0.27,0,0.64-0.08,0.939-0.239
					c0.08-0.04,0.17-0.061,0.25-0.061c0.27,0,0.54,0.21,0.54,0.51c0,0.569-1.229,0.8-1.869,0.8c-1.47,0-2.579-0.989-2.579-2.539
					c0-1.399,1.029-2.528,2.499-2.528c1.089,0,1.919,0.63,2.259,1.629c0.07,0.22,0.141,0.49,0.141,0.729
					C105.72,266.706,105.459,266.975,105.13,266.975z M103.321,265.046c-0.79,0-1.13,0.589-1.189,1.069h2.379
					C104.48,265.656,104.16,265.046,103.321,265.046z"/>
				<path fill="#333333" d="M108.921,265.286c-0.391,0.05-0.76,0.21-0.99,0.51v2.619c0,0.35-0.279,0.629-0.619,0.629h-0.02
					c-0.35,0-0.63-0.279-0.63-0.629v-3.698c0-0.34,0.28-0.62,0.649-0.62c0.34,0,0.619,0.28,0.619,0.62v0.1
					c0.24-0.319,0.561-0.699,1.04-0.699c0.37,0,0.56,0.229,0.56,0.52C109.531,265.016,109.271,265.236,108.921,265.286z"/>
				<path fill="#333333" d="M114.259,266.975h-2.979c0.08,0.609,0.57,1.119,1.39,1.119c0.271,0,0.64-0.08,0.94-0.239
					c0.079-0.04,0.17-0.061,0.249-0.061c0.271,0,0.54,0.21,0.54,0.51c0,0.569-1.229,0.8-1.869,0.8c-1.469,0-2.578-0.989-2.578-2.539
					c0-1.399,1.029-2.528,2.498-2.528c1.09,0,1.919,0.63,2.259,1.629c0.069,0.22,0.14,0.49,0.14,0.729
					C114.849,266.706,114.589,266.975,114.259,266.975z M112.45,265.046c-0.789,0-1.129,0.589-1.189,1.069h2.379
					C113.611,265.656,113.29,265.046,112.45,265.046z"/>
				<path fill="#333333" d="M116.442,269.083c-0.44,0-0.8-0.369-0.8-0.799c0-0.44,0.359-0.81,0.8-0.81s0.81,0.369,0.81,0.81
					C117.251,268.714,116.882,269.083,116.442,269.083z M117.021,266.326c-0.01,0.31-0.26,0.55-0.589,0.55
					c-0.31,0-0.56-0.24-0.569-0.55c-0.051-1.109-0.16-3.139-0.16-3.339c0-0.409,0.319-0.729,0.749-0.729
					c0.41,0,0.72,0.32,0.72,0.729C117.171,263.187,117.072,265.216,117.021,266.326z"/>
			</g>
			<g>
				<rect x="19.421" y="246.916" fill="#FFFFFF" width="166.516" height="1"/>
				<rect x="19.421" y="247.916" fill="#E6E6E5" width="166.516" height="1"/>
			</g>
			<g>
				<rect x="19.421" y="284.69" fill="#FFFFFF" width="166.516" height="1"/>
				<rect x="19.421" y="285.69" fill="#E6E6E5" width="166.516" height="1"/>
			</g>
			<polygon fill="#55889B" points="39.658,198.567 39.658,179.496 33.453,179.496 33.453,198.567 29.854,198.567 36.555,205.27 
				43.257,198.567 			"/>
			<path fill="#9EAD3A" d="M32.98,275.808h-5.877v-13.223h5.877V275.808z M49.142,263.319c-0.826-0.185-4.936-0.644-7.346-0.733
				c1.469-2.205,1.469-7.346,1.469-7.346c0-0.736-0.643-1.471-1.469-1.471c-0.844,0-1.174,0.169-1.446,0.344
				c-0.758,2.596-1.63,4.821-2.228,5.533c-0.598,0.711-3.673,2.938-3.673,2.938v11.754c1.126,0.733,8.173,2.938,11.754,2.938
				c1.331,0,2.681-0.766,2.938-1.469c0.437-1.194,1.469-7.438,1.469-11.02C50.61,264.214,49.968,263.503,49.142,263.319z"/>
		</g>
	</g>
</g>
</svg>
