<svg version="1.1" id="Layer_1" xmlns="http://www.w3.org/2000/svg" xmlns:xlink="http://www.w3.org/1999/xlink" x="0px" y="0px"
	 width="128.684px" height="42.895px" viewBox="0 0 128.684 42.895" enable-background="new 0 0 128.684 42.895"
	 xml:space="preserve">
<g>
	<g>
		<path fill="#666666" d="M21.447,41.703c-11.169,0-20.256-9.087-20.256-20.256S10.278,1.191,21.447,1.191h85.789
			c11.169,0,20.256,9.087,20.256,20.256s-9.087,20.256-20.256,20.256H21.447z"/>
		<path fill="#FFFFFF" d="M107.236,2.383c10.512,0,19.064,8.552,19.064,19.064c0,10.512-8.553,19.064-19.064,19.064H21.447
			c-10.512,0-19.064-8.553-19.064-19.064c0-10.512,8.552-19.064,19.064-19.064H107.236 M107.236,0H21.447C9.603,0,0,9.603,0,21.447
			s9.603,21.447,21.447,21.447h85.789c11.845,0,21.447-9.603,21.447-21.447S119.081,0,107.236,0L107.236,0z"/>
	</g>
	<rect x="121.335" y="16.682" fill="#FFFFFF" width="4.966" height="10.128"/>
	<polygon fill="#FFFFFF" points="26.809,19.139 20.777,19.139 20.777,13.106 16.756,13.106 16.756,19.139 10.724,19.139 
		10.724,23.16 16.756,23.16 16.756,29.192 20.777,29.192 20.777,23.16 26.809,23.16 	"/>
</g>
</svg>
