<svg version="1.1" id="Layer_1" xmlns="http://www.w3.org/2000/svg" xmlns:xlink="http://www.w3.org/1999/xlink" x="0px" y="0px"
	 width="297.691px" height="621.735px" viewBox="0 0 297.691 621.735" enable-background="new 0 0 297.691 621.735"
	 xml:space="preserve">
<g>
	<g>
		<g>
			<path fill="#E6E6E5" d="M9.763,169.645c0,0.503-0.412,0.915-0.915,0.915H0.915c-0.503,0-0.915-0.412-0.915-0.915v-18.844
				c0-0.503,0.412-0.915,0.915-0.915h7.933c0.503,0,0.915,0.412,0.915,0.915V169.645z"/>
		</g>
		<g>
			<path fill="#E6E6E5" d="M9.763,118.821c0,0.503-0.412,0.915-0.915,0.915H0.915c-0.503,0-0.915-0.412-0.915-0.915V94.522
				c0-0.503,0.412-0.915,0.915-0.915h7.933c0.503,0,0.915,0.412,0.915,0.915V118.821z"/>
		</g>
		<g>
			<path fill="#E6E6E5" d="M189.826,9.763c-0.503,0-0.915-0.412-0.915-0.915V0.915c0-0.503,0.412-0.915,0.915-0.915h44.024
				c0.503,0,0.915,0.412,0.915,0.915v7.933c0,0.503-0.412,0.915-0.915,0.915H189.826z"/>
		</g>
		<g>
			<path fill="#E6E6E5" d="M9.763,219.895c0,0.503-0.412,0.915-0.915,0.915H0.915c-0.503,0-0.915-0.412-0.915-0.915V201.05
				c0-0.503,0.412-0.915,0.915-0.915h7.933c0.503,0,0.915,0.412,0.915,0.915V219.895z"/>
		</g>
		<g>
			<path fill="#F3F3F3" d="M43.771,617.163c-19.421,0-35.222-15.801-35.222-35.222V43.578c0-19.421,15.801-35.222,35.222-35.222
				h214.503c19.421,0,35.222,15.8,35.222,35.222v538.363c0,19.421-15.801,35.222-35.222,35.222H43.771z"/>
			<path fill="#E0E1E0" d="M258.274,9.729c18.664,0,33.85,15.185,33.85,33.849v538.363c0,18.664-15.186,33.85-33.85,33.85H43.771
				c-18.665,0-33.849-15.186-33.849-33.85V43.578c0-18.665,15.185-33.849,33.849-33.849H258.274 M258.274,6.984H43.771
				c-20.126,0-36.594,16.467-36.594,36.594v538.363c0,20.127,16.467,36.594,36.594,36.594h214.503
				c20.127,0,36.594-16.467,36.594-36.594V43.578C294.868,23.452,278.401,6.984,258.274,6.984L258.274,6.984z"/>
		</g>
		<g>
			<path fill="#FFFFFF" d="M258.274,6.984c20.127,0,36.594,16.467,36.594,36.594v538.363c0,20.127-16.467,36.594-36.594,36.594
				H43.771c-20.126,0-36.594-16.467-36.594-36.594V43.578c0-20.126,16.467-36.594,36.594-36.594H258.274 M258.274,4.24H43.771
				C22.08,4.24,4.433,21.887,4.433,43.578v538.363c0,21.691,17.647,39.338,39.338,39.338h214.503
				c21.691,0,39.338-17.646,39.338-39.338V43.578C297.612,21.887,279.966,4.24,258.274,4.24L258.274,4.24z"/>
		</g>
		<g>
			<path fill="#1A1A1A" d="M276.78,530.446c0,1.509-1.235,2.744-2.744,2.744H28.009c-1.51,0-2.745-1.235-2.745-2.744V96.206
				c0-1.51,1.235-2.745,2.745-2.745h246.027c1.509,0,2.744,1.235,2.744,2.745V530.446z"/>
		</g>
		<circle fill="#E6E6E5" cx="151.022" cy="572.115" r="27.673"/>
		<g>
			<path fill="none" stroke="#FFFFFF" stroke-width="1.8297" stroke-miterlimit="10" d="M161.188,579.959
				c0,1.509-1.235,2.744-2.744,2.744h-14.839c-1.51,0-2.745-1.235-2.745-2.744v-15.584c0-1.509,1.235-2.744,2.745-2.744h14.839
				c1.509,0,2.744,1.235,2.744,2.744V579.959z"/>
		</g>
	</g>
	<path opacity="0.35" fill="#FFFFFF" d="M247.926,6.984H110.379l53.773,86.477H275.78v179.52l18.088,29.088V52.926
		C293.868,27.658,273.194,6.984,247.926,6.984z"/>
	<g>
		<path fill="#B4B4B4" d="M130.147,67.912c-3.948,0-7.16-3.212-7.16-7.161s3.212-7.162,7.16-7.162h41.749
			c3.948,0,7.161,3.213,7.161,7.162s-3.213,7.161-7.161,7.161H130.147z"/>
		<path fill="#E0E1E0" d="M171.896,54.504c3.45,0,6.246,2.796,6.246,6.247s-2.796,6.246-6.246,6.246h-41.749
			c-3.45,0-6.245-2.796-6.245-6.246s2.795-6.247,6.245-6.247H171.896 M171.896,52.675h-41.749c-4.453,0-8.075,3.623-8.075,8.076
			s3.622,8.076,8.075,8.076h41.749c4.453,0,8.076-3.623,8.076-8.076S176.35,52.675,171.896,52.675L171.896,52.675z"/>
	</g>
	<g>
		<path fill="#B4B4B4" d="M151.023,44.203c-3.355,0-6.085-2.729-6.085-6.082s2.73-6.082,6.085-6.082c3.353,0,6.08,2.729,6.08,6.082
			S154.376,44.203,151.023,44.203z"/>
		<path fill="#E0E1E0" d="M151.023,32.954c2.853,0,5.165,2.313,5.165,5.167c0,2.853-2.312,5.167-5.165,5.167
			c-2.854,0-5.17-2.314-5.17-5.167C145.854,35.268,148.17,32.954,151.023,32.954 M151.023,31.125c-3.859,0-7,3.139-7,6.997
			s3.14,6.997,7,6.997c3.856,0,6.995-3.139,6.995-6.997S154.88,31.125,151.023,31.125L151.023,31.125z"/>
	</g>
</g>
</svg>