<svg version="1.1" id="Layer_1" xmlns="http://www.w3.org/2000/svg" xmlns:xlink="http://www.w3.org/1999/xlink" x="0px" y="0px"
	 width="297.691px" height="621.735px" viewBox="0 0 297.691 621.735" enable-background="new 0 0 297.691 621.735"
	 xml:space="preserve">
<g>
	<g>
		<g>
			<path fill="#1A1A1A" d="M276.78,530.446c0,1.51-1.235,2.744-2.744,2.744H28.009c-1.51,0-2.744-1.234-2.744-2.744V96.206
				c0-1.51,1.234-2.745,2.744-2.745h246.027c1.509,0,2.744,1.235,2.744,2.745V530.446L276.78,530.446z"/>
		</g>
	</g>
	<g enable-background="new    ">
		<path fill="#FFFFFF" d="M136.588,100.276c0.176,0.245,0.264,0.538,0.264,0.879c0,0.352-0.089,0.634-0.267,0.848
			c-0.1,0.12-0.246,0.229-0.439,0.328c0.294,0.106,0.516,0.276,0.666,0.508c0.149,0.231,0.224,0.513,0.224,0.844
			c0,0.341-0.085,0.647-0.256,0.918c-0.109,0.18-0.245,0.331-0.408,0.453c-0.184,0.141-0.401,0.237-0.65,0.289
			c-0.25,0.052-0.521,0.078-0.814,0.078h-2.594v-5.758h2.783C135.798,99.673,136.295,99.877,136.588,100.276z M133.462,100.663v1.27
			h1.399c0.25,0,0.453-0.048,0.609-0.143s0.234-0.264,0.234-0.506c0-0.269-0.103-0.445-0.309-0.531
			c-0.178-0.06-0.405-0.09-0.681-0.09H133.462z M133.462,102.885v1.535h1.398c0.25,0,0.444-0.034,0.583-0.102
			c0.252-0.125,0.378-0.364,0.378-0.719c0-0.3-0.122-0.505-0.367-0.617c-0.137-0.062-0.329-0.095-0.576-0.098H133.462z"/>
		<path fill="#FFFFFF" d="M142.329,100.682h-3.047v1.223h2.797v1h-2.797v1.48h3.188v1.035h-4.363v-5.758h4.223V100.682z"/>
		<path fill="#FFFFFF" d="M143.704,101.327h1.184v1.168h-1.184V101.327z M143.704,104.252h1.184v1.168h-1.184V104.252z"/>
		<path fill="#FFFFFF" d="M150.329,100.682h-3.047v1.223h2.797v1h-2.797v1.48h3.188v1.035h-4.363v-5.758h4.223V100.682z"/>
		<path fill="#FFFFFF" d="M155.097,99.811c0.211,0.091,0.391,0.226,0.539,0.402c0.121,0.146,0.218,0.308,0.289,0.484
			c0.07,0.177,0.106,0.379,0.106,0.605c0,0.273-0.069,0.542-0.207,0.807s-0.366,0.451-0.684,0.561
			c0.266,0.106,0.454,0.259,0.564,0.455s0.166,0.497,0.166,0.9v0.387c0,0.263,0.011,0.441,0.032,0.535
			c0.031,0.148,0.105,0.258,0.222,0.328v0.145h-1.328c-0.036-0.128-0.062-0.23-0.078-0.309c-0.031-0.161-0.048-0.327-0.051-0.496
			l-0.008-0.535c-0.005-0.367-0.068-0.612-0.19-0.734s-0.351-0.184-0.686-0.184h-1.175v2.258h-1.176v-5.758h2.754
			C154.582,99.67,154.885,99.72,155.097,99.811z M152.61,100.663v1.547h1.295c0.257,0,0.45-0.031,0.579-0.094
			c0.227-0.109,0.341-0.325,0.341-0.648c0-0.349-0.11-0.583-0.33-0.703c-0.124-0.067-0.31-0.102-0.557-0.102H152.61z"/>
		<path fill="#FFFFFF" d="M163.272,102.928c-0.337,0.281-0.818,0.422-1.444,0.422h-1.198v2.07h-1.195v-5.758h2.472
			c0.57,0,1.025,0.148,1.363,0.445c0.34,0.297,0.509,0.757,0.509,1.379C163.778,102.167,163.609,102.647,163.272,102.928z
			 M162.354,100.854c-0.152-0.128-0.366-0.191-0.641-0.191h-1.084v1.695h1.084c0.274,0,0.488-0.069,0.641-0.207
			s0.229-0.356,0.229-0.656S162.507,100.982,162.354,100.854z"/>
		<path fill="#FFFFFF" d="M168.562,99.663h1.731v5.758h-1.121v-3.895c0-0.112,0.001-0.269,0.004-0.471s0.004-0.357,0.004-0.467
			l-1.091,4.832h-1.17l-1.083-4.832c0,0.109,0.001,0.265,0.004,0.467s0.004,0.358,0.004,0.471v3.895h-1.121v-5.758h1.751
			l1.048,4.527L168.562,99.663z"/>
	</g>
	<g>
		<rect x="34.866" y="98.233" fill="#FFFFFF" width="1.588" height="7.272"/>
		<rect x="32.622" y="99.544" fill="#FFFFFF" width="1.588" height="5.961"/>
		<rect x="30.378" y="100.855" fill="#FFFFFF" width="1.589" height="4.65"/>
		<rect x="28.135" y="102.166" fill="#FFFFFF" width="1.589" height="3.34"/>
	</g>
	<g>
		<g>
			<path fill="#FFFFFF" d="M271.966,99.588v5.938h-11.733v-5.938H271.966 M272.366,99.188h-0.4h-11.733h-0.4v0.4v5.938v0.4h0.4
				h11.733h0.4v-0.4v-5.938V99.188L272.366,99.188z"/>
		</g>
		<rect x="271.966" y="100.82" fill="#FFFFFF" width="1.084" height="3.474"/>
		<rect x="260.725" y="100.081" fill="#FFFFFF" width="4.267" height="4.953"/>
	</g>
	<rect x="28.35" y="110.672" fill="#FFFFFF" width="244.915" height="38.796"/>
	<g>
		<rect x="38.144" y="121.319" fill="#E93E3C" width="22.666" height="2.798"/>
		<rect x="38.144" y="127.614" fill="#E93E3C" width="22.666" height="2.799"/>
		<rect x="38.144" y="133.91" fill="#E93E3C" width="22.666" height="2.798"/>
	</g>
	<g>
		<g>
			<rect x="143.733" y="119.137" fill="#E93E3C" width="6.285" height="20.955"/>
			<rect x="152.115" y="119.137" fill="#E93E3C" width="6.288" height="6.287"/>
			<rect x="152.115" y="133.805" fill="#E93E3C" width="6.288" height="6.287"/>
			<rect x="133.257" y="133.805" fill="#E93E3C" width="6.285" height="6.287"/>
			<rect x="166.784" y="119.137" fill="#E93E3C" width="6.287" height="6.287"/>
			<rect x="166.784" y="133.805" fill="#E93E3C" width="6.287" height="6.287"/>
			<rect x="129.065" y="119.137" fill="#E93E3C" width="6.285" height="20.955"/>
			<polygon fill="#BD2827" points="152.115,125.424 156.307,129.614 152.115,133.805 158.403,133.805 162.593,129.614 
				158.403,125.424 			"/>
			<polyline fill="#BD2827" points="139.542,140.092 143.733,135.901 143.733,129.614 139.542,133.805 			"/>
			<polygon fill="#BD2827" points="173.071,133.805 168.88,129.614 173.071,125.424 166.784,125.424 162.593,129.614 
				166.784,133.805 			"/>
			<polygon fill="#E93E3C" points="131.16,119.137 126.97,119.137 129.065,121.232 131.16,121.232 			"/>
			<polygon fill="#E93E3C" points="170.974,140.092 175.167,140.092 173.071,137.997 170.974,137.997 			"/>
		</g>
	</g>
	<path fill="#E93E3C" d="M258.555,132.494h2.241v3.361c0,0.619-0.502,1.121-1.121,1.121h-13.446c-0.618,0-1.12-0.501-1.12-1.121
		V124.65c0-0.619,0.502-1.121,1.12-1.121h4.481v2.241h-3.36v8.964h11.205V132.494L258.555,132.494z M262.873,125.935l-4.481-4.482
		c-0.107-0.107-0.25-0.164-0.396-0.164c-0.072,0-0.145,0.014-0.214,0.043c-0.208,0.087-0.345,0.291-0.345,0.517v2.241
		c-3.714,0-6.726,3.512-6.726,7.844c1.121-1.307,3.012-3.361,6.726-3.361v2.241c0,0.227,0.137,0.431,0.345,0.518
		c0.069,0.029,0.142,0.043,0.214,0.043c0.146,0,0.289-0.057,0.396-0.164l4.481-4.483
		C263.092,126.508,263.092,126.154,262.873,125.935z"/>
	<rect x="28.781" y="465.975" fill="#F3F3F3" width="244.915" height="63.582"/>
	<g>
		<rect x="28.85" y="149.968" fill="#FFFFFF" width="243.915" height="41.04"/>
		<path fill="#B4B4B4" d="M272.265,150.468v40.04H29.35v-40.04H272.265 M273.265,149.468H28.35v42.04h244.915V149.468
			L273.265,149.468z"/>
	</g>
	<g>
		<path fill="#55889B" d="M263.696,517.557c0,2.199-1.8,4-4,4H42.781c-2.2,0-4-1.801-4-4v-35.582c0-2.199,1.8-4,4-4h216.915
			c2.2,0,4,1.801,4,4V517.557L263.696,517.557z"/>
	</g>
	<g>
		<path fill="#60B8DE" d="M263.696,515.557c0,2.199-1.8,4-4,4H42.781c-2.2,0-4-1.801-4-4v-35.582c0-2.199,1.8-4,4-4h216.915
			c2.2,0,4,1.801,4,4V515.557L263.696,515.557z"/>
	</g>
	<g enable-background="new    ">
		<path fill="#FFFFFF" d="M84.763,502.597c-2.703,0-4.334-1.972-4.334-4.317c0-2.329,1.632-4.301,4.334-4.301
			c2.72,0,4.352,1.972,4.352,4.301C89.115,500.625,87.483,502.597,84.763,502.597z M84.763,495.9c-1.343,0-2.091,1.104-2.091,2.38
			c0,1.292,0.748,2.396,2.091,2.396s2.108-1.104,2.108-2.396C86.871,497.004,86.106,495.9,84.763,495.9z"/>
		<path fill="#FFFFFF" d="M94.555,496.104c-0.663,0.085-1.292,0.356-1.683,0.866v4.454c0,0.595-0.476,1.07-1.054,1.07h-0.034
			c-0.595,0-1.071-0.476-1.071-1.07v-6.289c0-0.578,0.476-1.055,1.105-1.055c0.578,0,1.054,0.477,1.054,1.055v0.17
			c0.408-0.544,0.952-1.19,1.768-1.19c0.629,0,0.952,0.392,0.952,0.884C95.592,495.645,95.15,496.019,94.555,496.104z"/>
		<path fill="#FFFFFF" d="M103.547,502.495c-0.595,0-1.071-0.476-1.071-1.07v-0.085c-0.646,0.815-1.547,1.258-2.533,1.258
			c-2.074,0-3.638-1.563-3.638-4.301c0-2.686,1.547-4.317,3.638-4.317c0.969,0,1.887,0.425,2.533,1.258v-3.213
			c0-0.595,0.476-1.07,1.105-1.07c0.595,0,1.071,0.476,1.071,1.07v9.4C104.652,502.019,104.176,502.495,103.547,502.495z
			 M102.476,496.834c-0.357-0.544-1.139-0.935-1.87-0.935c-1.224,0-2.074,0.969-2.074,2.396c0,1.411,0.85,2.38,2.074,2.38
			c0.731,0,1.513-0.391,1.87-0.935V496.834z"/>
		<path fill="#FFFFFF" d="M113.594,498.976h-5.065c0.136,1.037,0.969,1.904,2.363,1.904c0.459,0,1.088-0.136,1.598-0.408
			c0.136-0.068,0.289-0.102,0.425-0.102c0.459,0,0.918,0.356,0.918,0.866c0,0.97-2.091,1.36-3.179,1.36
			c-2.499,0-4.386-1.683-4.386-4.317c0-2.38,1.751-4.301,4.25-4.301c1.853,0,3.264,1.07,3.842,2.771
			c0.119,0.374,0.238,0.833,0.238,1.241C114.597,498.517,114.155,498.976,113.594,498.976z M110.517,495.696
			c-1.343,0-1.921,1.003-2.023,1.818h4.046C112.489,496.733,111.945,495.696,110.517,495.696z"/>
		<path fill="#FFFFFF" d="M120.037,496.104c-0.663,0.085-1.292,0.356-1.683,0.866v4.454c0,0.595-0.476,1.07-1.054,1.07h-0.034
			c-0.595,0-1.071-0.476-1.071-1.07v-6.289c0-0.578,0.476-1.055,1.105-1.055c0.578,0,1.054,0.477,1.054,1.055v0.17
			c0.408-0.544,0.952-1.19,1.768-1.19c0.629,0,0.952,0.392,0.952,0.884C121.074,495.645,120.632,496.019,120.037,496.104z"/>
		<path fill="#FFFFFF" d="M132.702,502.495h-0.17c-0.17,0-0.935-0.136-0.935-0.951c-0.561,0.663-1.53,1.054-2.601,1.054
			c-1.309,0-2.855-0.884-2.855-2.72c0-1.921,1.547-2.652,2.855-2.652c1.088,0,2.057,0.357,2.601,1.003v-1.104
			c0-0.833-0.714-1.377-1.802-1.377c-0.646,0-1.275,0.153-1.836,0.527c-0.119,0.067-0.255,0.119-0.391,0.119
			c-0.391,0-0.816-0.323-0.816-0.833c0-0.153,0.051-0.307,0.119-0.425c0.51-0.816,2.346-1.156,3.298-1.156
			c1.87,0,3.586,0.748,3.586,3.11v4.335C133.756,502.019,133.28,502.495,132.702,502.495z M131.597,499.401
			c-0.357-0.476-1.037-0.714-1.734-0.714c-0.85,0-1.547,0.442-1.547,1.241c0,0.765,0.697,1.207,1.547,1.207
			c0.697,0,1.377-0.238,1.734-0.714V499.401z"/>
		<path fill="#FFFFFF" d="M143.616,505.725c-1.003,0-2.686-0.255-3.179-1.021c-0.085-0.136-0.136-0.306-0.136-0.476
			c0-0.527,0.425-0.901,0.901-0.901c0.153,0,0.306,0.034,0.459,0.119c0.578,0.357,1.224,0.51,1.955,0.51
			c1.037,0,2.261-0.459,2.261-2.073v-0.833c-0.646,0.815-1.53,1.292-2.533,1.292c-2.057,0-3.621-1.445-3.621-4.182
			c0-2.686,1.547-4.182,3.621-4.182c0.986,0,1.87,0.425,2.533,1.258v-0.085c0-0.595,0.476-1.071,1.105-1.071
			c0.595,0,1.071,0.477,1.071,1.071v6.681C148.052,504.959,145.639,505.725,143.616,505.725z M145.877,496.834
			c-0.357-0.544-1.139-0.935-1.853-0.935c-1.224,0-2.074,0.85-2.074,2.261s0.85,2.261,2.074,2.261c0.714,0,1.496-0.408,1.853-0.935
			V496.834z"/>
		<path fill="#FFFFFF" d="M152.558,492.007c0,0.714-0.578,1.292-1.293,1.292c-0.696,0-1.291-0.578-1.291-1.292
			s0.595-1.275,1.291-1.275C151.98,490.732,152.558,491.293,152.558,492.007z M151.265,502.495c-0.594,0-1.07-0.476-1.07-1.07
			v-6.289c0-0.578,0.477-1.055,1.105-1.055c0.578,0,1.053,0.477,1.053,1.055v6.289C152.353,502.019,151.879,502.495,151.265,502.495
			z"/>
		<path fill="#FFFFFF" d="M160.531,502.495h-0.17c-0.17,0-0.936-0.136-0.936-0.951c-0.561,0.663-1.529,1.054-2.601,1.054
			c-1.309,0-2.855-0.884-2.855-2.72c0-1.921,1.547-2.652,2.855-2.652c1.088,0,2.058,0.357,2.601,1.003v-1.104
			c0-0.833-0.713-1.377-1.801-1.377c-0.646,0-1.275,0.153-1.836,0.527c-0.119,0.067-0.256,0.119-0.392,0.119
			c-0.391,0-0.815-0.323-0.815-0.833c0-0.153,0.051-0.307,0.119-0.425c0.51-0.816,2.346-1.156,3.297-1.156
			c1.87,0,3.587,0.748,3.587,3.11v4.335C161.585,502.019,161.109,502.495,160.531,502.495z M159.426,499.401
			c-0.356-0.476-1.037-0.714-1.733-0.714c-0.851,0-1.547,0.442-1.547,1.241c0,0.765,0.696,1.207,1.547,1.207
			c0.696,0,1.377-0.238,1.733-0.714V499.401z"/>
		<path fill="#FFFFFF" d="M170.34,502.495c-0.595,0-1.07-0.476-1.07-1.07v-3.995c0-1.139-0.596-1.529-1.514-1.529
			c-0.85,0-1.513,0.476-1.869,0.969v4.556c0,0.595-0.477,1.07-1.088,1.07c-0.596,0-1.071-0.476-1.071-1.07v-6.289
			c0-0.578,0.476-1.055,1.104-1.055c0.578,0,1.055,0.477,1.055,1.055v0.118c0.527-0.629,1.529-1.274,2.873-1.274
			c1.801,0,2.668,1.02,2.668,2.617v4.828C171.427,502.019,170.952,502.495,170.34,502.495z"/>
		<path fill="#FFFFFF" d="M176.324,502.597c-1.513,0-2.329-0.782-2.329-2.244v-4.283h-0.526c-0.51,0-0.936-0.425-0.936-0.969
			c0-0.493,0.426-0.918,0.936-0.918h0.526v-1.275c0-0.595,0.476-1.07,1.104-1.07c0.596,0,1.071,0.476,1.071,1.07v1.275h0.851
			c0.492,0,0.918,0.425,0.918,0.952c0,0.51-0.426,0.935-0.918,0.935h-0.851v3.705c0,0.646,0.408,0.901,0.748,0.901
			c0.052,0,0.136,0,0.187,0c0.612,0,0.953,0.408,0.953,0.935C178.058,502.155,177.734,502.597,176.324,502.597z"/>
		<path fill="#FFFFFF" d="M188.359,502.597c-0.969,0-1.869-0.408-2.533-1.258v3.229c0,0.578-0.475,1.054-1.088,1.054
			c-0.594,0-1.07-0.476-1.07-1.054v-9.434c0-0.578,0.477-1.055,1.105-1.055c0.578,0,1.053,0.477,1.053,1.055v0.085
			c0.629-0.8,1.53-1.241,2.533-1.241c2.107,0,3.638,1.563,3.638,4.301C191.997,501.016,190.467,502.597,188.359,502.597z
			 M187.679,495.9c-0.697,0-1.496,0.408-1.854,0.935v2.907c0.357,0.51,1.156,0.935,1.854,0.935c1.24,0,2.074-0.969,2.074-2.396
			C189.754,496.869,188.92,495.9,187.679,495.9z"/>
		<path fill="#FFFFFF" d="M195.941,492.007c0,0.714-0.577,1.292-1.291,1.292c-0.697,0-1.292-0.578-1.292-1.292
			s0.595-1.275,1.292-1.275C195.364,490.732,195.941,491.293,195.941,492.007z M194.65,502.495c-0.596,0-1.071-0.476-1.071-1.07
			v-6.289c0-0.578,0.476-1.055,1.104-1.055c0.578,0,1.055,0.477,1.055,1.055v6.289C195.738,502.019,195.261,502.495,194.65,502.495z
			"/>
		<path fill="#FFFFFF" d="M203.404,502.393h-4.912c-0.561,0-1.071-0.476-1.071-1.104c0-0.238,0.085-0.477,0.238-0.681l3.569-4.538
			h-2.873c-0.51,0-0.935-0.425-0.935-0.969c0-0.493,0.425-0.918,0.935-0.918h4.845c0.511,0,1.037,0.441,1.037,1.054
			c0,0.255-0.067,0.493-0.221,0.68l-3.621,4.59h3.009c0.493,0,0.918,0.425,0.918,0.918
			C204.322,501.968,203.897,502.393,203.404,502.393z"/>
		<path fill="#FFFFFF" d="M211.547,502.393h-4.912c-0.561,0-1.071-0.476-1.071-1.104c0-0.238,0.085-0.477,0.238-0.681l3.569-4.538
			h-2.873c-0.51,0-0.935-0.425-0.935-0.969c0-0.493,0.425-0.918,0.935-0.918h4.845c0.511,0,1.037,0.441,1.037,1.054
			c0,0.255-0.067,0.493-0.221,0.68l-3.621,4.59h3.009c0.493,0,0.918,0.425,0.918,0.918
			C212.465,501.968,212.04,502.393,211.547,502.393z"/>
		<path fill="#FFFFFF" d="M220.2,502.495h-0.17c-0.171,0-0.935-0.136-0.935-0.951c-0.562,0.663-1.53,1.054-2.602,1.054
			c-1.309,0-2.855-0.884-2.855-2.72c0-1.921,1.547-2.652,2.855-2.652c1.088,0,2.057,0.357,2.602,1.003v-1.104
			c0-0.833-0.715-1.377-1.803-1.377c-0.646,0-1.274,0.153-1.836,0.527c-0.119,0.067-0.254,0.119-0.391,0.119
			c-0.391,0-0.816-0.323-0.816-0.833c0-0.153,0.052-0.307,0.119-0.425c0.51-0.816,2.346-1.156,3.299-1.156
			c1.869,0,3.586,0.748,3.586,3.11v4.335C221.254,502.019,220.777,502.495,220.2,502.495z M219.095,499.401
			c-0.357-0.476-1.037-0.714-1.734-0.714c-0.85,0-1.547,0.442-1.547,1.241c0,0.765,0.697,1.207,1.547,1.207
			c0.697,0,1.377-0.238,1.734-0.714V499.401z"/>
	</g>
	<rect x="28.781" y="387.635" fill="#E6E6E5" width="81.495" height="78.34"/>
	<rect x="109.276" y="387.635" fill="#F3F3F3" width="1" height="78.34"/>
	<g>
		<rect x="191.771" y="387.635" fill="#55889B" width="81.494" height="78.34"/>
		<path fill="#FFFFFF" d="M248.268,424.18c0,0.684-0.267,1.354-0.77,1.855l-13.125,13.127c-0.493,0.492-1.16,0.768-1.855,0.768
			c-0.696,0-1.363-0.275-1.855-0.768l-13.125-13.127c-0.502-0.502-0.77-1.174-0.77-1.855c0-0.338,0.065-0.68,0.199-1.004
			c0.406-0.98,1.364-1.621,2.426-1.621h6.562V408.43c0-1.449,1.176-2.625,2.625-2.625h7.875c1.45,0,2.625,1.176,2.625,2.625v13.125
			h6.562c1.062,0,2.02,0.641,2.426,1.621C248.203,423.5,248.268,423.842,248.268,424.18z M248.268,442.555h-31.5v-10.5h-5.25v10.5
			c0,2.9,2.352,5.25,5.25,5.25h31.5c2.899,0,5.25-2.35,5.25-5.25v-10.5h-5.25V442.555z"/>
	</g>
	<path fill="#60B8DE" d="M261.317,179.231c-0.463,0.463-1.07,0.696-1.678,0.696c-0.608,0-1.216-0.232-1.681-0.696l-3.711-3.711
		c-1.054,0.54-2.246,0.846-3.513,0.846c-4.26,0-7.714-3.454-7.714-7.715c0-4.261,3.454-7.715,7.714-7.715
		c4.262,0,7.715,3.454,7.715,7.715c0,1.265-0.306,2.458-0.847,3.511l3.713,3.712C262.244,176.801,262.244,178.305,261.317,179.231z
		 M250.736,172.805c2.296,0,4.154-1.86,4.154-4.154s-1.858-4.154-4.154-4.154c-2.295,0-4.153,1.86-4.153,4.154
		S248.441,172.805,250.736,172.805z"/>
	<g enable-background="new    ">
		<path fill="#989898" d="M46.276,176.675c-0.595,0.477-1.445,0.816-2.601,0.816c-2.533,0-4.352-1.785-4.352-4.317
			c0-2.516,1.819-4.301,4.352-4.301c1.275,0,2.465,0.459,2.822,1.122c0.068,0.119,0.102,0.255,0.102,0.391
			c0,0.578-0.544,0.918-1.02,0.918c-0.204,0-0.408-0.051-0.595-0.17c-0.357-0.221-0.782-0.34-1.207-0.34
			c-1.309,0-2.227,0.952-2.227,2.38s0.918,2.396,2.227,2.396c0.442,0,0.85-0.119,1.224-0.357c0.187-0.118,0.374-0.17,0.578-0.17
			c0.527,0,1.037,0.374,1.037,0.936C46.616,176.234,46.497,176.505,46.276,176.675z"/>
		<path fill="#989898" d="M54.368,177.389h-0.17c-0.17,0-0.935-0.136-0.935-0.951c-0.561,0.663-1.53,1.054-2.601,1.054
			c-1.309,0-2.856-0.884-2.856-2.72c0-1.921,1.547-2.652,2.856-2.652c1.088,0,2.057,0.357,2.601,1.003v-1.104
			c0-0.833-0.714-1.377-1.802-1.377c-0.646,0-1.275,0.153-1.836,0.527c-0.119,0.067-0.255,0.119-0.391,0.119
			c-0.391,0-0.816-0.323-0.816-0.833c0-0.153,0.051-0.307,0.119-0.425c0.51-0.816,2.346-1.156,3.298-1.156
			c1.87,0,3.586,0.748,3.586,3.11v4.335C55.422,176.914,54.946,177.389,54.368,177.389z M53.263,174.295
			c-0.357-0.476-1.037-0.714-1.734-0.714c-0.85,0-1.547,0.442-1.547,1.241c0,0.765,0.697,1.207,1.547,1.207
			c0.697,0,1.377-0.238,1.734-0.714V174.295z"/>
		<path fill="#989898" d="M60.319,177.492c-1.513,0-2.329-0.782-2.329-2.244v-4.283h-0.527c-0.51,0-0.935-0.425-0.935-0.969
			c0-0.493,0.425-0.918,0.935-0.918h0.527v-1.275c0-0.595,0.476-1.07,1.104-1.07c0.595,0,1.071,0.476,1.071,1.07v1.275h0.85
			c0.493,0,0.918,0.425,0.918,0.952c0,0.51-0.425,0.935-0.918,0.935h-0.85v3.705c0,0.646,0.408,0.901,0.748,0.901
			c0.051,0,0.136,0,0.187,0c0.612,0,0.952,0.408,0.952,0.935C62.052,177.049,61.729,177.492,60.319,177.492z"/>
		<path fill="#989898" d="M74.462,173.871h-5.065c0.136,1.037,0.969,1.904,2.363,1.904c0.459,0,1.088-0.136,1.598-0.408
			c0.136-0.068,0.289-0.102,0.425-0.102c0.459,0,0.918,0.356,0.918,0.866c0,0.97-2.091,1.36-3.179,1.36
			c-2.499,0-4.386-1.683-4.386-4.317c0-2.38,1.751-4.301,4.25-4.301c1.853,0,3.264,1.07,3.842,2.771
			c0.119,0.374,0.238,0.833,0.238,1.241C75.465,173.412,75.023,173.871,74.462,173.871z M71.385,170.59
			c-1.343,0-1.921,1.003-2.023,1.818h4.046C73.357,171.627,72.813,170.59,71.385,170.59z"/>
		<path fill="#989898" d="M83.098,177.389h-0.17c-0.17,0-0.935-0.136-0.935-0.951c-0.561,0.663-1.53,1.054-2.601,1.054
			c-1.309,0-2.855-0.884-2.855-2.72c0-1.921,1.547-2.652,2.855-2.652c1.088,0,2.057,0.357,2.601,1.003v-1.104
			c0-0.833-0.714-1.377-1.802-1.377c-0.646,0-1.275,0.153-1.836,0.527c-0.119,0.067-0.255,0.119-0.391,0.119
			c-0.391,0-0.816-0.323-0.816-0.833c0-0.153,0.051-0.307,0.119-0.425c0.51-0.816,2.346-1.156,3.298-1.156
			c1.87,0,3.586,0.748,3.586,3.11v4.335C84.152,176.914,83.676,177.389,83.098,177.389z M81.993,174.295
			c-0.357-0.476-1.037-0.714-1.734-0.714c-0.85,0-1.547,0.442-1.547,1.241c0,0.765,0.697,1.207,1.547,1.207
			c0.697,0,1.377-0.238,1.734-0.714V174.295z"/>
		<path fill="#989898" d="M89.049,177.492c-1.513,0-2.329-0.782-2.329-2.244v-4.283h-0.527c-0.51,0-0.935-0.425-0.935-0.969
			c0-0.493,0.425-0.918,0.935-0.918h0.527v-1.275c0-0.595,0.476-1.07,1.105-1.07c0.595,0,1.071,0.476,1.071,1.07v1.275h0.85
			c0.493,0,0.918,0.425,0.918,0.952c0,0.51-0.425,0.935-0.918,0.935h-0.85v3.705c0,0.646,0.408,0.901,0.748,0.901
			c0.051,0,0.136,0,0.187,0c0.612,0,0.952,0.408,0.952,0.935C90.782,177.049,90.459,177.492,89.049,177.492z"/>
		<path fill="#989898" d="M94.403,166.902c0,0.714-0.578,1.292-1.292,1.292c-0.697,0-1.292-0.578-1.292-1.292
			s0.595-1.275,1.292-1.275C93.825,165.626,94.403,166.188,94.403,166.902z M93.111,177.389c-0.595,0-1.071-0.476-1.071-1.07v-6.289
			c0-0.578,0.476-1.055,1.105-1.055c0.578,0,1.054,0.477,1.054,1.055v6.289C94.199,176.914,93.723,177.389,93.111,177.389z"/>
		<path fill="#989898" d="M102.953,177.389c-0.595,0-1.071-0.476-1.071-1.07v-3.995c0-1.139-0.595-1.529-1.513-1.529
			c-0.85,0-1.513,0.476-1.87,0.969v4.556c0,0.595-0.476,1.07-1.088,1.07c-0.595,0-1.071-0.476-1.071-1.07v-6.289
			c0-0.578,0.476-1.055,1.105-1.055c0.578,0,1.054,0.477,1.054,1.055v0.118c0.527-0.629,1.53-1.274,2.873-1.274
			c1.802,0,2.668,1.02,2.668,2.617v4.828C104.041,176.914,103.565,177.389,102.953,177.389z"/>
		<path fill="#989898" d="M109.55,180.62c-1.003,0-2.686-0.255-3.179-1.021c-0.085-0.136-0.136-0.306-0.136-0.476
			c0-0.527,0.425-0.901,0.901-0.901c0.153,0,0.306,0.034,0.459,0.119c0.578,0.357,1.224,0.51,1.955,0.51
			c1.037,0,2.261-0.459,2.261-2.073v-0.833c-0.646,0.815-1.53,1.292-2.533,1.292c-2.057,0-3.621-1.445-3.621-4.182
			c0-2.686,1.547-4.182,3.621-4.182c0.986,0,1.87,0.425,2.533,1.258v-0.085c0-0.595,0.476-1.071,1.105-1.071
			c0.595,0,1.071,0.477,1.071,1.071v6.681C113.987,179.854,111.573,180.62,109.55,180.62z M111.811,171.729
			c-0.357-0.544-1.139-0.935-1.853-0.935c-1.224,0-2.074,0.85-2.074,2.261s0.85,2.261,2.074,2.261c0.714,0,1.496-0.408,1.853-0.935
			V171.729z"/>
		<path fill="#989898" d="M125.173,177.492c-0.969,0-1.87-0.408-2.533-1.258v3.229c0,0.578-0.476,1.054-1.088,1.054
			c-0.595,0-1.071-0.476-1.071-1.054v-9.434c0-0.578,0.476-1.055,1.105-1.055c0.578,0,1.054,0.477,1.054,1.055v0.085
			c0.629-0.8,1.53-1.241,2.533-1.241c2.108,0,3.638,1.563,3.638,4.301C128.81,175.911,127.281,177.492,125.173,177.492z
			 M124.493,170.794c-0.697,0-1.496,0.408-1.853,0.935v2.907c0.357,0.51,1.156,0.935,1.853,0.935c1.241,0,2.074-0.969,2.074-2.396
			C126.567,171.763,125.734,170.794,124.493,170.794z"/>
		<path fill="#989898" d="M132.755,166.902c0,0.714-0.578,1.292-1.292,1.292c-0.697,0-1.292-0.578-1.292-1.292
			s0.595-1.275,1.292-1.275C132.177,165.626,132.755,166.188,132.755,166.902z M131.463,177.389c-0.595,0-1.071-0.476-1.071-1.07
			v-6.289c0-0.578,0.476-1.055,1.105-1.055c0.578,0,1.054,0.477,1.054,1.055v6.289C132.551,176.914,132.075,177.389,131.463,177.389
			z"/>
		<path fill="#989898" d="M140.217,177.288h-4.913c-0.561,0-1.071-0.476-1.071-1.104c0-0.238,0.085-0.477,0.238-0.681l3.569-4.538
			h-2.873c-0.51,0-0.935-0.425-0.935-0.969c0-0.493,0.425-0.918,0.935-0.918h4.845c0.51,0,1.037,0.441,1.037,1.054
			c0,0.255-0.068,0.493-0.221,0.68l-3.621,4.59h3.009c0.493,0,0.918,0.425,0.918,0.918
			C141.135,176.863,140.71,177.288,140.217,177.288z"/>
		<path fill="#989898" d="M148.36,177.288h-4.913c-0.561,0-1.071-0.476-1.071-1.104c0-0.238,0.085-0.477,0.238-0.681l3.569-4.538
			h-2.873c-0.51,0-0.935-0.425-0.935-0.969c0-0.493,0.425-0.918,0.935-0.918h4.844c0.51,0,1.037,0.441,1.037,1.054
			c0,0.255-0.068,0.493-0.221,0.68l-3.621,4.59h3.009c0.493,0,0.918,0.425,0.918,0.918
			C149.278,176.863,148.853,177.288,148.36,177.288z"/>
		<path fill="#989898" d="M157.013,177.389h-0.171c-0.17,0-0.935-0.136-0.935-0.951c-0.561,0.663-1.529,1.054-2.601,1.054
			c-1.31,0-2.856-0.884-2.856-2.72c0-1.921,1.547-2.652,2.856-2.652c1.088,0,2.057,0.357,2.601,1.003v-1.104
			c0-0.833-0.714-1.377-1.802-1.377c-0.646,0-1.274,0.153-1.836,0.527c-0.119,0.067-0.255,0.119-0.392,0.119
			c-0.391,0-0.815-0.323-0.815-0.833c0-0.153,0.052-0.307,0.119-0.425c0.51-0.816,2.346-1.156,3.298-1.156
			c1.869,0,3.586,0.748,3.586,3.11v4.335C158.066,176.914,157.591,177.389,157.013,177.389z M155.908,174.295
			c-0.357-0.476-1.037-0.714-1.734-0.714c-0.85,0-1.547,0.442-1.547,1.241c0,0.765,0.697,1.207,1.547,1.207
			c0.697,0,1.377-0.238,1.734-0.714V174.295z"/>
	</g>
	<rect x="163.499" y="161.022" fill="#989898" width="1" height="18.5"/>
	<g>
		<rect x="110.276" y="387.635" fill="#E6E6E5" width="81.494" height="78.34"/>
		<path fill="#55889B" d="M139.396,409.307c0-1.012,0.608-1.924,1.545-2.311c0.31-0.129,0.635-0.191,0.957-0.191
			c0.65,0,1.291,0.254,1.771,0.732l17.517,17.518c0.978,0.979,0.978,2.562,0,3.539l-17.517,17.518
			c-0.479,0.479-1.119,0.732-1.771,0.732c-0.322,0-0.647-0.061-0.957-0.189c-0.937-0.389-1.545-1.299-1.545-2.312V409.307z"/>
	</g>
	<path fill="#55889B" d="M79.885,444.342c0,1.014-0.608,1.926-1.545,2.312c-0.31,0.127-0.635,0.189-0.957,0.189
		c-0.65,0-1.291-0.254-1.771-0.732l-17.516-17.52c-0.979-0.977-0.979-2.561,0-3.537l17.516-17.518
		c0.479-0.48,1.119-0.734,1.771-0.734c0.322,0,0.647,0.062,0.957,0.191c0.937,0.387,1.545,1.299,1.545,2.312V444.342z"/>
	<rect x="110.276" y="387.635" fill="#CDCCCC" width="1" height="78.34"/>
</g>
</svg>
